<?xml version="1.0" encoding="UTF-8" standalone="no"?>
<svg
   xmlns:dc="http://purl.org/dc/elements/1.1/"
   xmlns:cc="http://creativecommons.org/ns#"
   xmlns:rdf="http://www.w3.org/1999/02/22-rdf-syntax-ns#"
   xmlns:svg="http://www.w3.org/2000/svg"
   xmlns="http://www.w3.org/2000/svg"
   xmlns:sodipodi="http://sodipodi.sourceforge.net/DTD/sodipodi-0.dtd"
   xmlns:inkscape="http://www.inkscape.org/namespaces/inkscape"
   version="1.1"
   width="194.0px"
   height="150.0px"
   overflow="visible"
   viewBox="0.0 0.0 194.0 150.0"
   enable-background="new 0.0 0.0 194.0 150.0"
   id="svg2664"
   sodipodi:version="0.32"
   inkscape:version="0.46"
   sodipodi:docname="1.svg"
   inkscape:output_extension="org.inkscape.output.svg.inkscape"
   inkscape:export-filename="C:\Documents and Settings\Mew\Desktop\1.png"
   inkscape:export-xdpi="1400"
   inkscape:export-ydpi="1400">
  <metadata
     id="metadata2901">
    <rdf:RDF>
      <cc:Work
         rdf:about="">
        <dc:format>image/svg+xml</dc:format>
        <dc:type
           rdf:resource="http://purl.org/dc/dcmitype/StillImage" />
      </cc:Work>
    </rdf:RDF>
  </metadata>
  <sodipodi:namedview
     inkscape:window-height="480"
     inkscape:window-width="640"
     inkscape:pageshadow="2"
     inkscape:pageopacity="0.0"
     guidetolerance="10.0"
     gridtolerance="10.0"
     objecttolerance="10.0"
     borderopacity="1.0"
     bordercolor="#666666"
     pagecolor="#ffffff"
     id="base"
     showgrid="false" />
  <defs
     id="defs2666">
    <inkscape:perspective
       sodipodi:type="inkscape:persp3d"
       inkscape:vp_x="0 : 75 : 1"
       inkscape:vp_y="0 : 1000 : 0"
       inkscape:vp_z="194 : 75 : 1"
       inkscape:persp3d-origin="97 : 50 : 1"
       id="perspective2903" />
  </defs>
  <rect
     width="194.0px"
     height="150.0px"
     x="0px"
     y="0px"
     fill="#FFFFFF"
     id="rect2668" />
  <g
     id="g2670">
    <g
       transform="matrix(1.0 0.0 0.0 1.0 0.0 0.0)"
       id="g2672">
      <path
         fill="#BF3E59"
         stroke-linecap="round"
         stroke-linejoin="round"
         d="M 26.65 76.95 C 26.116667 73.316666 26.316668 69.583336 27.25 65.75 C 28.183332 61.95 29.4 58.833336 30.9 56.4 C 31.766666 57.733334 32.333332 59.38333 32.6 61.35 C 31.666666 62.516666 30.916666 64.7 30.35 67.9 C 29.683334 72.36667 29.900002 74.91667 31.0 75.55 C 31.699999 75.51667 32.416664 74.433334 33.15 72.3 L 33.4 74.35 L 33.6 78.05 C 31.3 77.98333 28.983334 77.61666 26.65 76.95 Z"
         id="path2674" />
      <path
         fill="#96D4D0"
         stroke-linecap="round"
         stroke-linejoin="round"
         d="M 44.0 116.2 C 44.933334 122.03333 45.06667 126.63333 44.4 130.0 C 42.833332 130.0 40.98333 128.28333 38.85 124.85 L 38.3 123.1 C 38.533333 120.3 40.366665 117.75 43.8 115.45 L 44.0 116.2 Z"
         id="path2676" />
      <path
         fill="#96D4D0"
         stroke-linecap="round"
         stroke-linejoin="round"
         d="M 92.25 132.95 L 91.45 131.4 C 91.85 129.46666 92.35 127.58333 92.95 125.75 C 93.51667 125.21667 95.78334 123.6 99.75 120.9 L 98.75 124.9 C 98.416664 127.333336 96.71667 130.78334 93.65 135.25 L 92.25 132.95 Z"
         id="path2678" />
      <path
         fill="#D8EEE7"
         stroke-linecap="round"
         stroke-linejoin="round"
         d="M 40.95 109.5 C 42.183334 111.433334 43.15 113.416664 43.85 115.45 C 40.416668 117.75 38.583336 120.3 38.35 123.1 C 36.883335 118.2 35.9 113.666664 35.4 109.5 C 34.933334 105.299995 34.816666 102.166664 35.05 100.1 L 38.5 102.25 C 38.933334 105.11667 39.75 107.53333 40.95 109.5 Z"
         id="path2680" />
      <path
         fill="#197170"
         stroke-linecap="round"
         stroke-linejoin="round"
         d="M 46.3 129.8 L 44.4 130.0 C 45.06667 126.63333 44.95 122.03333 44.05 116.2 L 43.85 115.45 C 45.05 114.61666 46.483334 113.73333 48.15 112.8 C 48.916668 112.76667 49.833336 114.03333 50.9 116.6 C 52.0 119.13333 52.483334 121.1 52.35 122.5 C 51.983334 123.6 51.066666 124.98333 49.6 126.65 C 48.1 128.31667 47.0 129.36667 46.3 129.8 Z"
         id="path2682" />
      <path
         fill="#D8EEE7"
         stroke-linecap="round"
         stroke-linejoin="round"
         d="M 33.85 38.35 L 35.5 36.85 L 37.6 35.0 C 35.466667 37.766666 33.2 41.283333 30.8 45.55 C 28.433332 49.783333 26.883333 54.15 26.15 58.65 C 23.583332 63.65 21.999998 68.51667 21.4 73.25 L 18.35 76.5 C 17.116667 77.86667 16.266666 79.316666 15.8 80.85 C 15.266666 79.55 15.066667 78.450005 15.2 77.55 C 17.5 73.85 19.216667 69.88333 20.35 65.65 C 23.05 55.983334 25.933332 48.88333 29.0 44.35 C 29.0 40.55 29.766666 36.1 31.3 31.0 C 32.833332 25.9 34.716667 22.1 36.95 19.6 C 40.11667 20.1 43.783337 21.416666 47.95 23.55 C 46.016666 23.416666 44.183334 23.4 42.45 23.5 C 40.716667 23.566668 39.583332 23.766668 39.05 24.1 C 38.38333 24.933334 37.416664 27.150002 36.15 30.75 C 34.850002 34.316666 34.083336 36.85 33.85 38.35 Z"
         id="path2684" />
      <path
         fill="#D8EEE7"
         stroke-linecap="round"
         stroke-linejoin="round"
         d="M 38.9 124.85 C 41.033333 128.31667 42.866665 130.03333 44.4 130.0 C 44.133335 132.16667 44.233334 134.45001 44.7 136.85 L 43.9 135.6 C 41.833332 132.23334 40.166664 128.65 38.9 124.85 Z"
         id="path2686" />
      <path
         fill="#D8EEE7"
         stroke-linecap="round"
         stroke-linejoin="round"
         d="M 43.9 135.6 L 44.7 136.85 L 46.05 138.75 L 45.55 139.8 L 42.1 140.05 C 42.233334 139.51666 42.55 138.68333 43.05 137.55 L 43.9 135.6 Z"
         id="path2688" />
      <path
         fill="#FFFFFF"
         stroke-linecap="round"
         stroke-linejoin="round"
         d="M 26.7 76.95 C 24.300001 76.28333 22.5 75.53333 21.3 74.7 L 21.4 73.25 C 22.0 68.51667 23.6 63.650005 26.2 58.65 C 27.2 56.783333 28.25 55.3 29.35 54.2 L 30.95 56.45 C 29.45 58.85 28.233334 61.966667 27.3 65.8 C 26.366667 69.6 26.166668 73.316666 26.7 76.95 Z"
         id="path2690" />
      <path
         fill="#4F7F42"
         stroke-linecap="round"
         stroke-linejoin="round"
         d="M 155.35 20.4 C 156.68333 16.933332 158.71666 13.65 161.45 10.55 C 164.31667 7.85 164.95 8.933333 163.35 13.8 C 161.98334 16.866667 162.61667 21.866667 165.25 28.8 L 173.65 45.75 C 177.34999 53.083332 179.04999 61.016666 178.75 69.55 C 178.45 78.05 173.18333 86.066666 162.95 93.6 C 159.68333 88.73334 155.33333 83.683334 149.9 78.45 L 147.6 76.25 C 144.16667 72.98333 140.73334 69.899994 137.3 67.0 L 124.7 56.75 L 119.35 52.7 L 119.15 51.45 L 117.95 44.75 C 120.816666 45.316666 123.26667 46.533333 125.3 48.4 L 130.45 53.45 C 131.85 54.95 133.78334 56.133335 136.25 57.0 C 138.68333 57.833332 141.6 57.516666 145.0 56.05 C 148.26666 54.35 150.46666 51.449997 151.6 47.35 C 152.7 43.25 153.25 38.55 153.25 33.25 C 153.31667 28.15 154.01666 23.866665 155.35 20.4 Z"
         id="path2692" />
      <path
         fill="#CEDEE6"
         stroke-linecap="round"
         stroke-linejoin="round"
         d="M 31.95 52.65 L 33.0 53.9 C 32.3 54.433334 31.599998 55.266666 30.9 56.4 L 29.3 54.2 C 30.199999 53.3 31.083332 52.783333 31.95 52.65 Z"
         id="path2694" />
      <path
         fill="#7AA85C"
         stroke-linecap="round"
         stroke-linejoin="round"
         d="M 142.7 2.3 C 145.76666 -1.0666668 147.48334 -0.7000001 147.85 3.4 C 149.81667 0.73333335 151.18333 0.0 151.95 1.2 C 152.71667 2.4 152.83334 3.6166668 152.3 4.85 C 153.96667 2.6833332 155.51668 1.7499998 156.95 2.05 C 158.38333 2.35 158.68333 4.333333 157.85 8.0 C 159.25 6.733333 160.33333 6.466666 161.1 7.2 C 161.83333 7.9 161.96666 9.016666 161.5 10.55 C 158.73334 13.65 156.68333 16.933332 155.35 20.4 C 154.05 23.866667 153.36667 28.150002 153.3 33.25 C 153.3 38.55 152.73334 43.25 151.6 47.35 C 150.5 51.45 148.3 54.350002 145.0 56.05 C 141.63333 57.516666 138.71666 57.833332 136.25 57.0 C 133.78334 56.133335 131.85 54.95 130.45 53.45 C 129.08333 51.916668 127.38333 50.233334 125.35 48.4 C 123.28333 46.533333 120.816666 45.316666 117.95 44.75 C 116.48333 36.883335 114.899994 30.916668 113.2 26.85 L 123.55 25.2 C 129.01666 24.5 133.31667 23.449999 136.45 22.05 C 141.41666 19.016666 144.56665 15.366667 145.9 11.1 C 142.7 13.1 139.5 14.283334 136.3 14.65 L 127.2 15.4 C 123.2 15.566667 118.95 16.433334 114.45 18.0 C 109.95 19.533333 106.049995 22.716665 102.75 27.55 C 100.083336 28.65 97.71667 29.816666 95.65 31.05 C 91.083336 29.75 86.76667 28.783333 82.7 28.15 C 83.799995 25.083332 86.21666 21.766666 89.95 18.2 C 93.683334 14.633333 98.96667 12.7 105.8 12.4 L 124.5 11.8 C 130.63333 11.2 135.45 9.133333 138.95 5.6 L 142.7 2.3 Z"
         id="path2696" />
      <path
         fill="#197170"
         stroke-linecap="round"
         stroke-linejoin="round"
         d="M 93.8 135.45 L 93.65 135.25 C 96.71667 130.81667 98.416664 127.36667 98.75 124.9 C 98.88333 124.066666 99.2 122.73333 99.7 120.9 C 102.666664 118.933334 104.71667 118.11667 105.85 118.45 C 106.61667 119.683334 106.48334 122.51667 105.45 126.95 C 104.416664 131.35 103.51666 134.0 102.75 134.9 C 102.01667 135.33333 100.76667 135.71666 99.0 136.05 C 97.200005 136.38333 95.466675 136.18333 93.8 135.45 Z"
         id="path2698" />
      <path
         fill="#ABD492"
         stroke-linecap="round"
         stroke-linejoin="round"
         d="M 105.65 8.15 L 121.75 9.35 C 130.15001 9.75 135.83334 8.566667 138.8 5.8 C 135.3 9.2 130.53334 11.2 124.5 11.8 L 105.8 12.4 C 98.96667 12.7 93.683334 14.633333 89.95 18.2 C 86.21667 21.766666 83.8 25.083332 82.7 28.15 L 75.05 27.3 C 77.816666 19.466667 82.049995 14.266667 87.75 11.7 C 93.416664 9.133333 99.38333 7.95 105.65 8.15 Z"
         id="path2700" />
      <path
         fill="#7B3750"
         stroke-linecap="round"
         stroke-linejoin="round"
         d="M 32.65 61.35 C 32.383335 59.383335 31.816668 57.733337 30.95 56.4 C 31.65 55.266666 32.333332 54.433334 33.0 53.9 C 35.266666 57.600002 36.333332 61.95 36.2 66.95 C 36.1 71.95 35.5 75.65 34.4 78.05 L 33.65 78.05 L 33.45 74.35 L 33.2 72.3 L 34.1 68.5 C 34.733334 64.03333 34.516666 61.5 33.45 60.9 C 33.216667 60.833332 32.95 60.98333 32.65 61.35 Z"
         id="path2702" />
      <path
         fill="#D8EEE7"
         stroke-linecap="round"
         stroke-linejoin="round"
         d="M 67.3 30.95 L 57.6 33.4 C 56.733334 33.466667 55.7 32.933334 54.5 31.8 C 53.333332 30.699999 52.166664 29.783333 51.0 29.05 C 52.399998 28.65 54.116665 28.283333 56.15 27.95 L 75.05 27.25 L 82.7 28.15 C 77.666664 28.716667 72.53333 29.650002 67.3 30.95 Z"
         id="path2704" />
      <path
         fill="#197170"
         stroke-linecap="round"
         stroke-linejoin="round"
         d="M 147.65 76.2 C 148.25 77.63333 148.73334 79.46667 149.1 81.7 C 149.46666 83.96667 149.53333 85.683334 149.3 86.85 C 148.93333 87.816666 147.86667 88.333336 146.1 88.4 L 140.55 88.2 C 137.15 87.933334 135.16666 87.083336 134.6 85.65 L 130.45 78.1 C 128.31667 74.23334 126.95 71.433334 126.35 69.7 C 126.25 68.2 127.53333 67.33333 130.2 67.1 C 132.9 66.86667 135.26666 66.816666 137.3 66.95 L 147.65 76.2 Z"
         id="path2706" />
      <path
         fill="#62918B"
         stroke-linecap="round"
         stroke-linejoin="round"
         d="M 139.6 123.15 C 141.76668 128.08334 145.25002 131.88335 150.05 134.55 C 151.81667 134.31667 154.84999 132.68333 159.15 129.65 C 163.41667 126.61666 166.86667 123.23333 169.5 119.5 C 168.5 127.1 166.18333 134.26666 162.55 141.0 C 162.15 142.5 160.48332 143.66667 157.55 144.5 C 156.71667 143.09999 155.63335 142.41666 154.3 142.45 C 153.46667 142.91666 152.73334 143.83333 152.1 145.2 L 149.95 145.05 L 148.35 144.8 L 149.45 144.1 C 149.28333 143.40001 148.9 142.66667 148.3 141.9 C 147.73334 141.13333 147.03334 140.86667 146.2 141.1 C 145.26666 141.63333 144.38333 142.66666 143.55 144.2 C 142.58334 143.93333 141.88335 143.66667 141.45 143.4 C 140.31667 140.93333 138.93333 140.08334 137.3 140.85 C 134.2 137.88333 132.25 134.78333 131.45 131.55 L 127.6 131.3 L 125.4 130.9 C 122.26666 135.2 119.13333 139.01666 116.0 142.35 C 112.833336 145.68333 110.700005 147.38333 109.6 147.45 C 109.86667 146.31667 109.3 145.56667 107.9 145.2 C 109.8 143.1 112.41667 139.06668 115.75 133.1 C 119.11667 127.13334 122.3 120.75 125.3 113.95 C 128.26666 107.11666 130.13333 101.38333 130.9 96.75 C 134.93333 100.816666 139.71667 102.333336 145.25 101.3 C 142.41667 103.6 139.45001 106.96667 136.35 111.4 C 136.31667 114.3 137.4 118.21667 139.6 123.15 Z"
         id="path2708" />
      <path
         fill="#D8EEE7"
         stroke-linecap="round"
         stroke-linejoin="round"
         d="M 102.7 27.6 C 106.03333 26.233334 108.916664 25.283333 111.35 24.75 C 111.683334 24.783333 112.01667 25.05 112.35 25.55 L 111.6 25.85 C 108.933334 27.083334 106.200005 28.75 103.4 30.85 L 97.35 35.4 C 94.61667 36.600002 93.066666 35.883335 92.7 33.25 C 93.36666 32.55 94.33333 31.833332 95.6 31.1 C 97.666664 29.866667 100.03333 28.7 102.7 27.6 Z"
         id="path2710" />
      <path
         fill="#ABD492"
         stroke-linecap="round"
         stroke-linejoin="round"
         d="M 113.15 26.85 L 112.4 25.5 L 111.35 24.7 C 108.916664 25.233334 106.03333 26.183332 102.7 27.55 C 106.0 22.716665 109.9 19.516666 114.4 17.95 C 118.9 16.416666 123.15 15.566666 127.15 15.4 L 136.25 14.6 C 139.45 14.233334 142.65 13.066667 145.85 11.1 C 144.55 15.366667 141.4 19.016666 136.4 22.05 C 133.26666 23.449999 128.96666 24.483332 123.5 25.15 C 118.03333 25.816666 114.583336 26.383333 113.15 26.85 Z"
         id="path2712" />
      <path
         fill="#7FC9AD"
         stroke-linecap="round"
         stroke-linejoin="round"
         d="M 112.7 32.95 L 112.85 39.5 C 113.15 43.233334 113.833336 45.716667 114.9 46.95 L 119.15 51.45 L 119.3 52.65 L 124.7 56.75 C 128.13333 59.350002 132.33333 62.75 137.3 66.95 C 135.23334 66.816666 132.86667 66.86667 130.2 67.1 C 127.5 67.33333 126.21667 68.2 126.35 69.7 C 126.95 71.4 128.29999 74.200005 130.4 78.1 L 134.55 85.6 C 135.11667 87.066666 137.1 87.933334 140.5 88.2 L 146.05 88.35 C 147.85 88.28333 148.93333 87.78333 149.3 86.85 C 149.53333 85.65 149.46666 83.933334 149.1 81.7 C 148.7 79.46667 148.2 77.63333 147.6 76.2 L 149.9 78.4 C 155.3 83.63333 159.65001 88.7 162.95 93.6 C 168.41666 102.566666 170.58333 111.2 169.45 119.5 C 166.85 123.23333 163.41667 126.61666 159.15 129.65 C 154.88333 132.68333 151.85 134.31667 150.05 134.55 C 145.25 131.91667 141.76666 128.11667 139.6 123.15 C 137.40001 118.21667 136.31668 114.3 136.35 111.4 C 139.45 106.96667 142.41666 103.6 145.25 101.3 C 139.71666 102.333336 134.93332 100.816666 130.9 96.75 C 130.13333 101.38333 128.25 107.11666 125.25 113.95 C 122.28333 120.75 119.11667 127.13334 115.75 133.1 C 112.416664 139.06667 109.799995 143.09999 107.9 145.2 C 107.1 145.1 106.13333 145.76668 105.0 147.2 L 103.25 147.05 L 102.05 146.95 L 101.8 145.55 C 101.666664 144.75 101.43333 144.26666 101.1 144.1 C 100.5 143.63333 99.1 144.13333 96.9 145.6 L 94.75 145.05 L 93.25 144.65 C 93.35 143.18333 93.049995 142.21667 92.35 141.75 C 91.61667 141.25 90.96667 141.08333 90.4 141.25 L 90.45 139.3 L 93.6 135.25 L 93.8 135.45 C 95.433334 136.18333 97.15 136.38333 98.95 136.05 C 100.75 135.71667 102.0 135.33334 102.7 134.9 C 103.46667 134.0 104.36667 131.33334 105.4 126.9 C 106.433334 122.5 106.566666 119.683334 105.8 118.45 C 104.666664 118.11666 102.63333 118.93333 99.7 120.9 L 102.5 111.5 L 104.45 104.5 L 105.85 102.95 L 106.8 101.7 C 98.833336 106.36666 89.75 109.45 79.55 110.95 C 69.316666 112.416664 59.93333 111.61667 51.4 108.55 C 53.733334 112.35 54.933334 117.35 55.0 123.55 C 55.066666 129.75 53.75 135.61667 51.05 141.15 L 50.05 140.7 C 49.11667 138.7 47.983337 137.61667 46.65 137.45 L 46.0 138.7 L 44.65 136.8 C 44.216667 134.4 44.133335 132.13333 44.4 130.0 L 46.25 129.8 C 46.95 129.36667 48.05 128.31667 49.55 126.65 C 51.05 124.98334 51.983334 123.600006 52.35 122.5 C 52.483334 121.1 52.0 119.11667 50.9 116.55 C 49.8 113.98333 48.88333 112.71666 48.15 112.75 C 46.45 113.683334 45.0 114.566666 43.8 115.4 C 43.1 113.4 42.149998 111.416664 40.95 109.45 C 39.716667 107.48333 38.883335 105.08333 38.45 102.25 L 35.05 100.05 C 24.75 92.88334 18.333332 86.466675 15.8 80.8 C 16.266666 79.3 17.116667 77.86667 18.35 76.5 L 21.35 73.2 L 21.25 74.7 C 22.449999 75.5 24.249998 76.23334 26.65 76.9 C 29.016666 77.6 31.333332 77.98333 33.6 78.05 L 34.35 78.05 C 35.45 75.65 36.050003 71.95 36.15 66.95 C 36.283333 61.916668 35.233334 57.56667 33.0 53.9 L 31.95 52.65 C 31.083334 52.783333 30.2 53.283333 29.3 54.15 C 28.199999 55.283333 27.15 56.766666 26.15 58.6 C 26.883333 54.133335 28.433332 49.76667 30.8 45.5 C 33.166664 41.266666 35.43333 37.766666 37.6 35.0 L 35.5 36.85 L 33.85 38.35 C 34.083332 36.85 34.833332 34.3 36.1 30.7 C 37.399998 27.133333 38.38333 24.933332 39.05 24.1 C 39.583332 23.766666 40.716667 23.55 42.45 23.45 C 44.183334 23.35 46.016666 23.366667 47.95 23.5 L 56.1 27.95 L 51.0 29.05 C 52.166668 29.783333 53.333336 30.699999 54.5 31.8 C 55.666668 32.933334 56.683334 33.466667 57.55 33.4 L 67.25 30.95 C 72.51667 29.65 77.65 28.716665 82.65 28.15 C 86.75 28.783333 91.066666 29.75 95.6 31.05 C 94.33333 31.816668 93.36666 32.533333 92.7 33.2 C 93.066666 35.833336 94.61667 36.550003 97.35 35.35 L 103.4 30.8 C 106.2 28.699999 108.93333 27.033333 111.6 25.8 C 112.3 28.0 112.66667 30.383333 112.7 32.95 Z"
         id="path2714" />
      <path
         fill="#62918B"
         stroke-linecap="round"
         stroke-linejoin="round"
         d="M 79.55 111.0 C 89.78333 109.5 98.88333 106.416664 106.85 101.75 L 105.9 102.95 L 104.5 104.55 C 103.0 106.183334 101.13333 108.85 98.9 112.55 C 96.66667 116.25 94.683334 120.666664 92.95 125.8 C 92.35 127.6 91.85 129.48334 91.45 131.45 C 91.049995 133.31667 90.76666 135.2 90.6 137.1 L 89.7 136.5 C 88.566666 135.63333 87.55 134.71666 86.65 133.75 C 84.41667 131.21666 82.76667 128.88333 81.7 126.75 L 80.15 123.35 L 75.4 121.95 C 74.53333 124.51667 72.666664 128.43333 69.8 133.7 C 66.933334 139.0 63.1 141.98334 58.3 142.65 C 58.066666 140.98332 57.35 139.84999 56.15 139.25 C 55.616665 139.78334 54.866665 140.75 53.9 142.15 L 51.1 141.15 C 53.8 135.65 55.116665 129.79999 55.05 123.6 C 54.95 117.36667 53.733334 112.36667 51.4 108.6 C 59.933334 111.666664 69.316666 112.46667 79.55 111.0 Z"
         id="path2716" />
      <path
         fill="#D8EEE7"
         stroke-linecap="round"
         stroke-linejoin="round"
         d="M 102.55 111.5 L 99.75 120.95 C 95.78333 123.61666 93.51666 125.23333 92.95 125.8 C 94.683334 120.666664 96.66667 116.25 98.9 112.55 C 101.13333 108.816666 103.0 106.15 104.5 104.55 L 102.55 111.5 Z"
         id="path2718" />
      <path
         fill="#D8EEE7"
         stroke-linecap="round"
         stroke-linejoin="round"
         d="M 90.6 137.15 C 90.76666 135.21666 91.049995 133.31667 91.45 131.45 L 92.2 133.0 L 93.65 135.3 L 90.45 139.35 L 90.6 137.15 Z"
         id="path2720" />
      <path
         fill="#A8C4BD"
         stroke-linecap="round"
         stroke-linejoin="round"
         d="M 85.8 135.35 L 86.65 133.75 C 87.55 134.71666 88.566666 135.63333 89.7 136.5 L 87.25 137.0 L 84.9 137.25 L 85.8 135.35 Z"
         id="path2722" />
      <path
         fill="#62918B"
         stroke-linecap="round"
         stroke-linejoin="round"
         d="M 112.4 25.55 L 113.15 26.9 C 114.88333 30.933334 116.48333 36.883335 117.95 44.75 L 119.15 51.45 L 114.9 47.0 C 113.833336 45.766666 113.15 43.283333 112.85 39.55 L 112.7 33.0 C 112.666664 30.433332 112.299995 28.05 111.6 25.85 L 112.4 25.55 Z"
         id="path2724" />
      <path
         fill="#FFFFFF"
         stroke-linecap="round"
         stroke-linejoin="round"
         d="M 31.0 75.55 C 29.933332 74.950005 29.716665 72.4 30.35 67.9 C 30.95 64.7 31.716667 62.516663 32.65 61.35 C 32.916668 61.016666 33.183334 60.86667 33.45 60.9 C 34.516666 61.5 34.733334 64.05 34.1 68.55 L 33.2 72.3 C 32.466667 74.46667 31.733334 75.55 31.0 75.55 Z"
         id="path2726" />
      <path
         fill="#D8EEE7"
         stroke-linecap="round"
         stroke-linejoin="round"
         d="M 46.0 138.75 L 46.65 137.5 C 47.983334 137.63333 49.116665 138.71666 50.05 140.75 L 47.15 142.35 C 45.75 143.08333 44.866665 143.31667 44.5 143.05 C 44.399998 142.41667 44.73333 141.33334 45.5 139.8 L 46.0 138.75 Z"
         id="path2728" />
      <path
         fill="#A8C4BD"
         stroke-linecap="round"
         stroke-linejoin="round"
         d="M 53.85 142.1 L 56.1 139.25 C 57.3 139.81667 58.016666 140.95 58.25 142.65 L 53.0 143.3 L 53.85 142.1 Z"
         id="path2730" />
      <path
         fill="#D8EEE7"
         stroke-linecap="round"
         stroke-linejoin="round"
         d="M 90.4 141.25 C 90.96667 141.08333 91.61667 141.25 92.35 141.75 C 93.05 142.21666 93.350006 143.18332 93.25 144.65 C 92.51667 145.31667 90.850006 145.71667 88.25 145.85 C 89.183334 143.18333 89.9 141.65 90.4 141.25 Z"
         id="path2732" />
      <path
         fill="#D8EEE7"
         stroke-linecap="round"
         stroke-linejoin="round"
         d="M 96.9 145.6 C 99.1 144.16667 100.5 143.66667 101.1 144.1 C 101.433334 144.3 101.66667 144.8 101.8 145.6 L 102.05 146.95 L 100.9 148.05 C 100.2 148.71667 99.36666 149.16667 98.4 149.4 C 97.9 149.0 97.53333 148.3 97.3 147.3 L 96.9 145.6 Z"
         id="path2734" />
      <path
         fill="#A8C4BD"
         stroke-linecap="round"
         stroke-linejoin="round"
         d="M 105.0 147.2 C 106.13333 145.76666 107.1 145.09999 107.9 145.2 C 109.3 145.6 109.86667 146.36667 109.6 147.5 C 109.2 148.46666 108.2 149.31667 106.6 150.05 L 105.55 148.5 L 105.0 147.2 Z"
         id="path2736" />
      <path
         fill="#A8C4BD"
         stroke-linecap="round"
         stroke-linejoin="round"
         d="M 137.3 140.9 C 138.96667 140.13333 140.35 140.98334 141.45 143.45 C 140.65 143.88333 139.51666 144.31667 138.05 144.75 L 135.0 145.35 C 134.66667 145.15001 134.81667 144.48334 135.45 143.35 C 136.05 142.18333 136.66667 141.36667 137.3 140.9 Z"
         id="path2738" />
      <path
         fill="#A8C4BD"
         stroke-linecap="round"
         stroke-linejoin="round"
         d="M 143.55 144.25 C 144.38333 142.71666 145.26666 141.68332 146.2 141.15 C 147.03333 140.91667 147.73332 141.18333 148.3 141.95 C 148.9 142.71667 149.28333 143.45001 149.45 144.15 L 148.35 144.8 C 146.38333 146.0 144.66666 146.68333 143.2 146.85 C 142.56667 146.65001 142.68333 145.78334 143.55 144.25 Z"
         id="path2740" />
      <path
         fill="#A8C4BD"
         stroke-linecap="round"
         stroke-linejoin="round"
         d="M 152.1 145.2 C 152.73334 143.83333 153.46667 142.91666 154.3 142.45 C 155.66667 142.38333 156.75 143.06667 157.55 144.5 L 155.3 145.65 C 153.93333 146.34999 152.75 146.78333 151.75 146.95 C 151.71666 146.41666 151.83333 145.83333 152.1 145.2 Z"
         id="path2742" />
      <path
         fill="#197170"
         stroke-linecap="round"
         stroke-linejoin="round"
         d="M 46.3 58.15 C 45.9 58.783333 45.533337 58.983334 45.2 58.75 C 44.533333 58.649998 43.583332 56.949997 42.35 53.65 C 42.483334 52.883335 43.283333 51.95 44.75 50.85 L 47.35 50.9 C 47.05 55.06667 46.7 57.483337 46.3 58.15 Z"
         id="path2744" />
      <path
         fill="#197170"
         stroke-linecap="round"
         stroke-linejoin="round"
         d="M 56.65 66.2 C 55.916668 65.46667 55.600002 63.800003 55.7 61.2 C 56.5 60.13333 57.866665 59.05 59.8 57.95 C 61.733334 56.88333 62.983334 56.516663 63.55 56.85 C 63.816666 57.45 63.75 58.466667 63.35 59.9 C 62.983334 61.333332 62.600002 62.35 62.2 62.95 C 61.566666 63.949997 59.716667 65.033325 56.65 66.2 Z"
         id="path2746" />
      <path
         fill="#197170"
         stroke-linecap="round"
         stroke-linejoin="round"
         d="M 67.35 46.1 C 63.483334 48.43333 60.733334 49.63333 59.1 49.7 L 53.0 46.4 C 51.2 45.4 50.566666 44.25 51.1 42.95 C 54.166668 39.75 58.600002 37.45 64.4 36.05 C 70.2 34.683334 74.049995 34.31667 75.95 34.95 C 78.61666 36.61667 79.11666 38.15 77.45 39.55 L 67.35 46.1 Z"
         id="path2748" />
      <path
         fill="#FFFFFF"
         stroke-linecap="round"
         stroke-linejoin="round"
         d="M 29.2 87.4 C 30.7 87.86667 32.216667 88.38333 33.75 88.95 L 33.0 90.35 C 32.5 91.183334 31.933332 91.73334 31.3 92.0 L 30.05 89.45 L 29.2 87.4 Z"
         id="path2750" />
      <path
         fill="#FFFFFF"
         stroke-linecap="round"
         stroke-linejoin="round"
         d="M 84.75 91.05 L 91.25 90.85 C 90.683334 92.316666 89.933334 93.666664 89.0 94.9 C 88.066666 96.16667 87.46667 96.683334 87.2 96.45 L 85.8 93.5 L 84.75 91.05 Z"
         id="path2752" />
      <path
         fill="#4D3337"
         stroke-linecap="round"
         stroke-linejoin="round"
         d="M 33.8 88.95 C 36.36667 89.916664 38.86667 90.916664 41.3 91.95 C 39.6 92.28333 38.083332 92.88333 36.75 93.75 C 35.383335 94.61667 34.666668 95.1 34.6 95.2 C 31.0 92.63333 27.466667 89.583336 24.0 86.05 C 25.633333 86.38334 27.366667 86.833336 29.2 87.4 L 30.05 89.45 L 31.3 92.0 C 31.933332 91.76667 32.5 91.21667 33.0 90.35 L 33.8 88.95 Z"
         id="path2754" />
      <path
         fill="#AB4B57"
         stroke-linecap="round"
         stroke-linejoin="round"
         d="M 89.0 94.9 C 89.933334 93.63333 90.666664 92.26666 91.2 90.8 L 94.75 90.75 C 96.51667 90.61667 98.66667 90.01667 101.2 88.95 C 100.26667 90.15 98.03334 92.066666 94.5 94.7 C 90.933334 97.333336 86.8 99.86667 82.1 102.3 C 78.83333 100.6 74.416664 99.36666 68.85 98.6 L 52.55 97.6 C 47.216667 97.7 43.25 98.2 40.65 99.1 C 38.616665 97.933334 36.583332 96.63333 34.55 95.2 C 34.61667 95.066666 35.333336 94.566666 36.7 93.7 C 38.033333 92.833336 39.55 92.23334 41.25 91.9 C 43.95 93.03333 46.333336 94.083336 48.4 95.05 C 49.733334 95.316666 51.733334 95.066666 54.4 94.3 C 57.06667 93.566666 60.11667 92.916664 63.55 92.35 L 72.9 91.55 L 84.75 91.0 L 85.8 93.45 L 87.15 96.4 C 87.45 96.63333 88.066666 96.13333 89.0 94.9 Z"
         id="path2756" />
      <path
         fill="#DF8081"
         stroke-linecap="round"
         stroke-linejoin="round"
         d="M 67.45 106.85 C 59.016663 106.88333 50.1 104.316666 40.7 99.15 C 43.3 98.25 47.25 97.75 52.55 97.65 L 68.9 98.65 C 74.433334 99.41667 78.833336 100.65 82.1 102.35 C 77.0 104.98334 72.11667 106.48334 67.45 106.85 Z"
         id="path2758" />
      <path
         fill="#CEDEE6"
         stroke-linecap="round"
         stroke-linejoin="round"
         d="M 81.3 67.85 C 83.433334 64.11667 85.88333 61.083336 88.65 58.75 C 88.21667 60.116665 87.78333 62.63333 87.35 66.3 C 84.816666 69.166664 82.71667 71.96666 81.05 74.7 C 79.416664 77.4 78.26666 79.55 77.6 81.15 C 77.933334 75.98334 79.16667 71.55 81.3 67.85 Z"
         id="path2760" />
      <path
         fill="#7B3750"
         stroke-linecap="round"
         stroke-linejoin="round"
         d="M 96.25 53.55 C 97.51667 54.15 98.78334 55.300003 100.05 57.0 C 95.11667 59.133335 90.88333 62.25 87.35 66.35 C 87.75 62.649998 88.183334 60.116665 88.65 58.75 C 91.51666 56.350002 94.049995 54.61667 96.25 53.55 Z"
         id="path2762" />
      <path
         fill="#D8EEE7"
         stroke-linecap="round"
         stroke-linejoin="round"
         d="M 79.75 58.0 L 76.6 64.05 C 75.7 65.61667 75.066666 66.083336 74.7 65.45 C 74.333336 64.85 74.21667 63.966667 74.35 62.8 C 75.55 59.4 77.03334 56.75 78.8 54.85 L 81.65 52.0 C 82.75 51.3 82.88333 51.766666 82.05 53.4 L 79.75 58.0 Z"
         id="path2764" />
      <path
         fill="#FFFFFF"
         stroke-linecap="round"
         stroke-linejoin="round"
         d="M 81.05 74.7 C 82.71667 72.0 84.816666 69.21667 87.35 66.35 C 87.05 69.25 87.083336 72.2 87.45 75.2 C 87.816666 78.2 88.816666 80.6 90.45 82.4 L 81.9 82.1 C 79.5 81.83333 78.066666 81.533325 77.6 81.2 C 78.26666 79.6 79.416664 77.433334 81.05 74.7 Z"
         id="path2766" />
      <path
         fill="#BF3E59"
         stroke-linecap="round"
         stroke-linejoin="round"
         d="M 100.1 57.0 C 102.33333 60.0 104.149994 63.600002 105.55 67.8 C 106.950005 72.0 107.350006 75.6 106.75 78.6 C 101.816666 81.1 96.38333 82.36667 90.45 82.4 C 88.816666 80.6 87.816666 78.2 87.45 75.2 C 87.083336 72.2 87.05 69.25 87.35 66.35 C 90.88333 62.25 95.13333 59.133335 100.1 57.0 Z M 93.45 68.3 C 93.25 73.5 93.96667 76.38333 95.6 76.95 C 97.23334 76.583336 98.3 73.81667 98.8 68.65 C 98.96667 63.45 98.25 60.55 96.65 59.95 C 94.98334 60.35 93.91667 63.13333 93.45 68.3 Z"
         id="path2768" />
      <path
         fill="#FFFFFF"
         stroke-linecap="round"
         stroke-linejoin="round"
         d="M 93.4 68.3 C 93.86667 63.133335 94.933334 60.350002 96.6 59.95 C 98.23334 60.55 98.950005 63.43333 98.75 68.6 C 98.28333 73.76666 97.21667 76.549995 95.55 76.95 C 93.950005 76.35 93.23334 73.46667 93.4 68.3 Z"
         id="path2770" />
      <path
         fill="#197170"
         stroke-linecap="round"
         stroke-linejoin="round"
         d="M 114.75 119.5 C 113.11667 120.9 111.13334 119.333336 108.8 114.8 L 110.65 113.35 C 111.78333 112.55 112.88333 112.083336 113.95 111.95 C 114.416664 113.083336 114.816666 114.48334 115.15 116.15 C 115.51666 117.816666 115.38333 118.933334 114.75 119.5 Z"
         id="path2772" />
      <path
         fill="#197170"
         stroke-linecap="round"
         stroke-linejoin="round"
         d="M 147.95 106.8 C 149.75 105.5 151.2 104.933334 152.3 105.1 C 153.76666 105.933334 154.73332 108.23334 155.2 112.0 C 155.66666 115.73333 155.68332 118.299995 155.25 119.7 C 154.71666 120.833336 153.59999 122.31667 151.9 124.15 C 150.2 125.98334 148.8 126.933334 147.7 127.0 C 146.63333 126.46667 145.38333 124.76667 143.95 121.9 L 141.6 117.0 C 140.33333 115.53333 140.75 113.6 142.85 111.2 C 144.48334 109.6 146.18333 108.13333 147.95 106.8 Z"
         id="path2774" />
      <path
         fill="#197170"
         stroke-linecap="round"
         stroke-linejoin="round"
         d="M 158.2 120.95 L 159.0 119.4 L 161.05 119.8 L 160.45 121.2 L 159.45 122.8 C 158.48334 123.13334 157.8 123.13334 157.4 122.8 L 158.2 120.95 Z"
         id="path2776" />
      <path
         fill="#D8EEE7"
         stroke-linecap="round"
         stroke-linejoin="round"
         d="M 41.05 82.65 C 41.38333 82.11667 42.083332 81.48334 43.15 80.75 C 43.516666 80.816666 43.833332 81.433334 44.1 82.6 C 44.333332 83.76666 44.3 84.6 44.0 85.1 C 43.600002 85.53333 43.083336 85.666664 42.45 85.5 C 41.816666 85.333336 41.35 84.38334 41.05 82.65 Z"
         id="path2778" />
      <path
         fill="#221E1F"
         stroke-linecap="round"
         stroke-linejoin="round"
         d="M 47.9 29.65 L 51.2 28.75 L 51.25 29.2 L 48.15 30.0 L 44.35 30.8 L 47.9 29.65 Z"
         id="path2780" />
      <path
         fill="#221E1F"
         stroke-linecap="round"
         stroke-linejoin="round"
         d="M 120.7 65.9 L 120.3 61.95 L 120.75 61.9 C 121.01667 63.366665 121.15 66.166664 121.15 70.3 L 120.7 65.9 Z"
         id="path2782" />
      <path
         fill="#221E1F"
         stroke-linecap="round"
         stroke-linejoin="round"
         d="M 132.3 100.8 L 131.55 98.5 L 130.75 96.45 C 131.81667 98.11666 132.46666 99.49999 132.7 100.6 L 132.3 100.8 Z"
         id="path2784" />
      <path
         fill="none"
         stroke="#221E1F"
         stroke-width="0.45"
         stroke-linecap="round"
         stroke-linejoin="round"
         d="M 29.9 51.1 C 30.666666 51.5 31.35 52.016666 31.95 52.65"
         id="path2786" />
      <path
         fill="none"
         stroke="#221E1F"
         stroke-width="0.45"
         stroke-linecap="round"
         stroke-linejoin="round"
         d="M 31.95 52.65 L 33.0 53.9 C 35.233334 57.600002 36.3 61.95 36.2 66.95 C 36.066666 71.98333 35.466667 75.7 34.4 78.1 C 31.9 78.1 29.316666 77.71667 26.65 76.95 C 24.283333 76.28333 22.5 75.53333 21.3 74.7 C 21.466665 70.86666 22.633331 66.43333 24.8 61.4 C 26.966665 56.366665 29.349998 53.449997 31.95 52.65 Z"
         id="path2788" />
      <path
         fill="none"
         stroke="#221E1F"
         stroke-width="0.45"
         stroke-linecap="round"
         stroke-linejoin="round"
         d="M 28.0 63.15 C 26.533333 67.75 26.083332 72.35 26.65 76.95 M 33.0 53.95 C 31.166666 55.483334 29.5 58.55 28.0 63.15"
         id="path2790" />
      <path
         fill="none"
         stroke="#221E1F"
         stroke-width="0.45"
         stroke-linecap="round"
         stroke-linejoin="round"
         d="M 29.05 44.35 C 25.949999 48.883335 23.05 55.983337 20.35 65.65 C 19.25 69.88333 17.55 73.85 15.25 77.55 C 14.95 79.88334 16.6 83.15 20.2 87.35 C 23.800001 91.58333 28.766666 95.83333 35.1 100.1 C 40.0 103.4 45.433334 106.23334 51.4 108.6 C 60.733337 111.9 70.96667 112.566666 82.1 110.6 C 93.23334 108.6 102.73334 104.833336 110.6 99.3 M 33.85 38.4 C 32.25 39.933334 30.65 41.916668 29.05 44.35"
         id="path2792" />
      <path
         fill="none"
         stroke="#221E1F"
         stroke-width="0.45"
         stroke-linecap="round"
         stroke-linejoin="round"
         d="M 78.8 54.9 C 77.03333 56.8 75.566666 59.449997 74.4 62.85 M 81.65 52.05 L 78.8 54.9"
         id="path2794" />
      <path
         fill="none"
         stroke="#221E1F"
         stroke-width="0.45"
         stroke-linecap="round"
         stroke-linejoin="round"
         d="M 19.85 84.25 C 21.116667 85.083336 22.5 85.66667 24.0 86.0 L 29.2 87.4 L 33.8 88.95 C 36.36667 89.88333 38.86667 90.86667 41.3 91.9 L 48.45 95.05 C 49.783333 95.316666 51.783333 95.066666 54.45 94.3 C 57.11667 93.566666 60.15 92.916664 63.55 92.35 L 72.95 91.55 L 84.8 91.0 L 91.25 90.8 L 94.75 90.75 C 96.549995 90.61667 98.71666 90.01667 101.25 88.95 L 103.4 87.8 M 20.5 81.45 C 18.833334 82.48333 18.616667 83.416664 19.85 84.25"
         id="path2796" />
      <path
         fill="none"
         stroke="#221E1F"
         stroke-width="0.45"
         stroke-linecap="round"
         stroke-linejoin="round"
         d="M 44.15 86.2 L 44.8 87.65"
         id="path2798" />
      <path
         fill="none"
         stroke="#221E1F"
         stroke-width="0.45"
         stroke-linecap="round"
         stroke-linejoin="round"
         d="M 49.95 88.6 C 50.283333 88.26666 51.033333 87.86666 52.2 87.4"
         id="path2800" />
      <path
         fill="none"
         stroke="#221E1F"
         stroke-width="0.45"
         stroke-linecap="round"
         stroke-linejoin="round"
         d="M 98.5 52.55 C 97.9 52.75 97.15 53.083332 96.25 53.55"
         id="path2802" />
      <path
         fill="none"
         stroke="#221E1F"
         stroke-width="0.45"
         stroke-linecap="round"
         stroke-linejoin="round"
         d="M 81.3 67.85 C 79.166664 71.55 77.93333 75.98334 77.6 81.15 C 78.066666 81.48334 79.48333 81.78334 81.85 82.05 L 90.4 82.4 C 96.36667 82.333336 101.816666 81.066666 106.75 78.6 C 107.416664 74.5 106.566666 69.71667 104.2 64.25 C 101.799995 58.75 99.149994 55.183334 96.25 53.55 M 88.65 58.75 C 85.88333 61.083332 83.433334 64.11667 81.3 67.85"
         id="path2804" />
      <path
         fill="none"
         stroke="#221E1F"
         stroke-width="0.45"
         stroke-linecap="round"
         stroke-linejoin="round"
         d="M 96.25 53.55 C 94.01667 54.583332 91.48334 56.316666 88.65 58.75"
         id="path2806" />
      <path
         fill="none"
         stroke="#221E1F"
         stroke-width="0.45"
         stroke-linecap="round"
         stroke-linejoin="round"
         d="M 87.15 69.65 C 86.816666 74.95 87.9 79.2 90.4 82.4 M 88.65 58.8 C 87.95 60.733334 87.45 64.35 87.15 69.65"
         id="path2808" />
      <path
         fill="none"
         stroke="#221E1F"
         stroke-width="0.45"
         stroke-linecap="round"
         stroke-linejoin="round"
         d="M 98.8 68.65 C 98.333336 73.816666 97.26667 76.58333 95.6 76.95 C 93.96667 76.38333 93.25 73.5 93.45 68.3 C 93.916664 63.133335 94.98333 60.36667 96.65 60.0 C 98.25 60.566666 98.96667 63.45 98.8 68.65 Z"
         id="path2810" />
      <path
         fill="none"
         stroke="#221E1F"
         stroke-width="0.45"
         stroke-linecap="round"
         stroke-linejoin="round"
         d="M 34.05 68.5 C 33.216667 72.96667 32.2 75.316666 31.0 75.55 C 29.933332 74.916664 29.716665 72.36666 30.35 67.9 C 31.183334 63.466667 32.216667 61.133335 33.45 60.9 C 34.516666 61.5 34.716667 64.03333 34.05 68.5 Z"
         id="path2812" />
      <path
         fill="none"
         stroke="#221E1F"
         stroke-width="0.45"
         stroke-linecap="round"
         stroke-linejoin="round"
         d="M 34.55 95.2 C 46.05 103.03333 57.016666 106.916664 67.45 106.85 C 74.316666 106.05 81.25 103.4 88.25 98.9 C 95.21667 94.4 99.53333 91.083336 101.2 88.95 M 24.0 86.05 C 27.433332 89.583336 30.949999 92.63333 34.55 95.2"
         id="path2814" />
      <path
         fill="none"
         stroke="#221E1F"
         stroke-width="0.45"
         stroke-linecap="round"
         stroke-linejoin="round"
         d="M 30.0 89.4 C 30.5 90.63333 30.916666 91.48333 31.25 91.95 C 31.883333 91.71667 32.45 91.183334 32.95 90.35 L 33.75 88.95 M 29.2 87.4 L 30.0 89.4"
         id="path2816" />
      <path
         fill="none"
         stroke="#221E1F"
         stroke-width="0.45"
         stroke-linecap="round"
         stroke-linejoin="round"
         d="M 36.7 93.75 C 38.066666 92.88333 39.6 92.28333 41.3 91.95 M 34.6 95.2 C 34.666668 95.1 35.36667 94.61667 36.7 93.75"
         id="path2818" />
      <path
         fill="none"
         stroke="#221E1F"
         stroke-width="0.45"
         stroke-linecap="round"
         stroke-linejoin="round"
         d="M 85.85 93.45 L 87.2 96.45 C 87.5 96.683334 88.11667 96.16667 89.05 94.9 C 89.98333 93.63333 90.71666 92.28333 91.25 90.85 M 84.8 91.0 L 85.85 93.45"
         id="path2820" />
      <path
         fill="none"
         stroke="#221E1F"
         stroke-width="0.45"
         stroke-linecap="round"
         stroke-linejoin="round"
         d="M 75.4 121.95 L 80.15 123.35 C 84.38333 124.48334 88.63333 125.28334 92.9 125.75 M 61.8 116.3 C 64.33333 117.9 68.86666 119.78333 75.4 121.95"
         id="path2822" />
      <path
         fill="none"
         stroke="#221E1F"
         stroke-width="0.45"
         stroke-linecap="round"
         stroke-linejoin="round"
         d="M 46.7 137.5 L 46.05 138.7 L 45.5 139.8 C 44.766666 141.33334 44.433334 142.40001 44.5 143.0 C 44.866665 143.3 45.766666 143.06667 47.2 142.3 L 50.05 140.7 C 49.15 138.7 48.033337 137.63333 46.7 137.5 Z"
         id="path2824" />
      <path
         fill="none"
         stroke="#221E1F"
         stroke-width="0.45"
         stroke-linecap="round"
         stroke-linejoin="round"
         d="M 35.4 109.45 C 35.866665 113.65 36.833332 118.183334 38.3 123.05 L 38.9 124.8 C 40.133335 128.6 41.783333 132.20001 43.85 135.6 L 46.0 138.7 M 35.05 100.1 C 34.816666 102.166664 34.933334 105.28333 35.4 109.45"
         id="path2826" />
      <path
         fill="none"
         stroke="#221E1F"
         stroke-width="0.45"
         stroke-linecap="round"
         stroke-linejoin="round"
         d="M 43.0 137.5 L 42.1 140.05 L 45.5 139.8 M 43.85 135.6 L 43.0 137.5"
         id="path2828" />
      <path
         fill="none"
         stroke="#221E1F"
         stroke-width="0.45"
         stroke-linecap="round"
         stroke-linejoin="round"
         d="M 53.05 143.3 L 53.9 142.1 C 54.866665 140.7 55.616665 139.75 56.15 139.25 C 57.31667 139.81667 58.033337 140.93333 58.3 142.6 L 53.05 143.3 Z"
         id="path2830" />
      <path
         fill="none"
         stroke="#221E1F"
         stroke-width="0.45"
         stroke-linecap="round"
         stroke-linejoin="round"
         d="M 69.75 133.7 C 66.916664 138.96667 63.1 141.93335 58.3 142.6 M 75.4 121.95 C 74.5 124.51667 72.61667 128.43333 69.75 133.7"
         id="path2832" />
      <path
         fill="none"
         stroke="#221E1F"
         stroke-width="0.45"
         stroke-linecap="round"
         stroke-linejoin="round"
         d="M 51.65 141.35 L 53.85 142.1 M 50.05 140.75 L 51.65 141.35"
         id="path2834" />
      <path
         fill="none"
         stroke="#221E1F"
         stroke-width="0.45"
         stroke-linecap="round"
         stroke-linejoin="round"
         d="M 98.9 112.5 C 96.63333 116.200005 94.649994 120.61667 92.95 125.75 C 92.35 127.583336 91.85 129.46667 91.45 131.4 C 91.049995 133.26666 90.76666 135.16667 90.6 137.1 C 90.46667 138.46666 90.416664 139.84999 90.45 141.25 M 104.5 104.55 C 103.0 106.15 101.13333 108.8 98.9 112.5"
         id="path2836" />
      <path
         fill="none"
         stroke="#221E1F"
         stroke-width="0.45"
         stroke-linecap="round"
         stroke-linejoin="round"
         d="M 81.75 126.75 C 82.78333 128.88333 84.416664 131.2 86.65 133.7 L 89.75 136.45 L 90.6 137.1 M 80.2 123.35 L 81.75 126.75"
         id="path2838" />
      <path
         fill="none"
         stroke="#221E1F"
         stroke-width="0.45"
         stroke-linecap="round"
         stroke-linejoin="round"
         d="M 90.45 141.3 C 89.916664 141.66667 89.2 143.2 88.3 145.9 C 90.9 145.73332 92.566666 145.31665 93.3 144.65 C 93.4 143.18333 93.083336 142.21667 92.35 141.75 C 91.65 141.28334 91.01667 141.13335 90.45 141.3 Z"
         id="path2840" />
      <path
         fill="none"
         stroke="#221E1F"
         stroke-width="0.45"
         stroke-linecap="round"
         stroke-linejoin="round"
         d="M 96.95 145.6 L 97.3 147.3 C 97.566666 148.3 97.933334 148.98334 98.4 149.35 C 99.4 149.15001 100.25 148.71667 100.95 148.05 L 102.05 146.95 L 101.85 145.55 C 101.683334 144.75 101.433334 144.26666 101.1 144.1 C 100.53333 143.66667 99.15 144.16667 96.95 145.6 Z"
         id="path2842" />
      <path
         fill="none"
         stroke="#221E1F"
         stroke-width="0.45"
         stroke-linecap="round"
         stroke-linejoin="round"
         d="M 105.05 147.2 L 105.6 148.45 C 105.933334 149.21667 106.28333 149.75002 106.65 150.05 C 108.25 149.31667 109.23333 148.45 109.6 147.45 C 109.83333 146.65 109.51666 145.95 108.65 145.35 C 107.75 144.75 106.55 145.36667 105.05 147.2 Z"
         id="path2844" />
      <path
         fill="none"
         stroke="#221E1F"
         stroke-width="0.45"
         stroke-linecap="round"
         stroke-linejoin="round"
         d="M 85.8 135.35 L 84.9 137.2 L 87.25 137.0 L 89.7 136.5 M 86.6 133.75 L 85.8 135.35"
         id="path2846" />
      <path
         fill="none"
         stroke="#221E1F"
         stroke-width="0.45"
         stroke-linecap="round"
         stroke-linejoin="round"
         d="M 98.65 121.65 C 102.05 119.25 104.433334 118.183334 105.8 118.45 C 106.566666 119.683334 106.45 122.51667 105.45 126.95 C 104.416664 131.38333 103.5 134.05 102.7 134.95 C 102.0 135.38333 100.75 135.76666 98.95 136.1 C 97.183334 136.43333 95.46667 136.23334 93.8 135.5 C 93.333336 134.96666 92.833336 134.18332 92.3 133.15 L 91.45 131.45 M 92.9 125.8 L 98.65 121.65"
         id="path2848" />
      <path
         fill="none"
         stroke="#221E1F"
         stroke-width="0.45"
         stroke-linecap="round"
         stroke-linejoin="round"
         d="M 48.15 112.75 C 48.883335 112.71667 49.800003 113.98334 50.9 116.55 C 52.0 119.11667 52.483334 121.1 52.35 122.5 C 51.983334 123.6 51.05 124.98333 49.55 126.65 L 46.3 129.8 L 43.4 129.65 C 42.033333 129.18333 40.533333 127.56667 38.9 124.8 M 38.35 123.05 C 38.483334 119.55 41.75 116.11667 48.15 112.75"
         id="path2850" />
      <path
         fill="none"
         stroke="#221E1F"
         stroke-width="0.45"
         stroke-linecap="round"
         stroke-linejoin="round"
         d="M 108.8 114.8 L 110.65 113.4 C 111.78333 112.566666 112.86667 112.1 113.9 112.0 C 114.36667 113.13333 114.78333 114.53333 115.15 116.2 C 115.48334 117.86666 115.333336 118.98333 114.7 119.55 C 113.066666 120.950005 111.1 119.36667 108.8 114.8 Z"
         id="path2852" />
      <path
         fill="none"
         stroke="#221E1F"
         stroke-width="0.45"
         stroke-linecap="round"
         stroke-linejoin="round"
         d="M 116.05 142.35 C 119.183334 139.01668 122.316666 135.20001 125.45 130.9 C 127.65 127.833336 129.4 125.03334 130.7 122.5 C 132.76666 118.03333 133.71666 113.65 133.55 109.35 C 133.38333 105.05 133.01666 102.100006 132.45 100.5 M 109.65 147.5 C 110.75 147.40001 112.88333 145.68335 116.05 142.35"
         id="path2854" />
      <path
         fill="none"
         stroke="#221E1F"
         stroke-width="0.45"
         stroke-linecap="round"
         stroke-linejoin="round"
         d="M 136.3 111.6 C 131.86667 117.73334 130.26666 124.38334 131.5 131.55 C 132.3 134.78333 134.23334 137.88333 137.3 140.85 M 147.6 99.55 C 144.46666 101.450005 140.7 105.46667 136.3 111.6"
         id="path2856" />
      <path
         fill="none"
         stroke="#221E1F"
         stroke-width="0.45"
         stroke-linecap="round"
         stroke-linejoin="round"
         d="M 141.5 143.45 C 140.7 143.88333 139.55 144.31667 138.05 144.75 L 135.0 145.35 C 134.66667 145.15001 134.81667 144.46667 135.45 143.3 C 136.08333 142.16667 136.7 141.36667 137.3 140.9 C 138.96667 140.09999 140.36667 140.95 141.5 143.45 Z"
         id="path2858" />
      <path
         fill="none"
         stroke="#221E1F"
         stroke-width="0.45"
         stroke-linecap="round"
         stroke-linejoin="round"
         d="M 149.45 144.1 L 148.4 144.8 C 146.43333 146.0 144.71667 146.66667 143.25 146.8 C 142.61667 146.63333 142.71667 145.78333 143.55 144.25 C 144.41667 142.71666 145.3 141.68332 146.2 141.15 C 147.03333 140.91667 147.75 141.16667 148.35 141.9 C 148.95 142.66667 149.31667 143.40001 149.45 144.1 Z"
         id="path2860" />
      <path
         fill="none"
         stroke="#221E1F"
         stroke-width="0.45"
         stroke-linecap="round"
         stroke-linejoin="round"
         d="M 157.55 144.55 C 157.41667 144.61667 156.66667 145.0 155.3 145.7 C 153.93333 146.36667 152.75 146.78334 151.75 146.95 C 151.71666 146.45 151.83333 145.88333 152.1 145.25 C 152.73334 143.84999 153.46667 142.93332 154.3 142.5 C 155.66667 142.43333 156.75 143.11667 157.55 144.55 Z"
         id="path2862" />
      <path
         fill="none"
         stroke="#221E1F"
         stroke-width="0.45"
         stroke-linecap="round"
         stroke-linejoin="round"
         d="M 155.15 112.0 C 155.61667 115.73333 155.65001 118.28333 155.25 119.65 C 154.68333 120.816666 153.55 122.316666 151.85 124.15 C 150.15001 125.95 148.76668 126.88333 147.7 126.95 C 146.6 126.416664 145.35 124.71667 143.95 121.85 L 141.6 116.95 C 140.33333 115.51667 140.73332 113.583336 142.8 111.15 C 144.43333 109.583336 146.15 108.13334 147.95 106.8 C 149.71667 105.46667 151.15001 104.9 152.25 105.1 C 153.75 105.933334 154.71666 108.23334 155.15 112.0 Z"
         id="path2864" />
      <path
         fill="none"
         stroke="#221E1F"
         stroke-width="0.45"
         stroke-linecap="round"
         stroke-linejoin="round"
         d="M 159.05 119.4 L 158.25 120.95 L 157.45 122.75 C 157.85 123.11667 158.51668 123.11667 159.45 122.75 L 160.45 121.2 L 161.1 119.8 L 159.05 119.4 Z"
         id="path2866" />
      <path
         fill="none"
         stroke="#221E1F"
         stroke-width="0.45"
         stroke-linecap="round"
         stroke-linejoin="round"
         d="M 127.6 131.3 L 131.5 131.55 M 125.45 130.9 L 127.6 131.3"
         id="path2868" />
      <path
         fill="none"
         stroke="#221E1F"
         stroke-width="0.45"
         stroke-linecap="round"
         stroke-linejoin="round"
         d="M 162.55 141.0 C 166.38333 133.96666 168.73334 126.44999 169.6 118.45 C 170.43333 110.48333 168.21666 102.2 162.95 93.6 C 159.68333 88.73334 155.33333 83.66667 149.9 78.4 L 147.6 76.25 C 144.16667 72.98333 140.73334 69.899994 137.3 67.0 L 124.7 56.75 L 119.35 52.7 M 157.55 144.5 C 160.48334 143.66667 162.15001 142.5 162.55 141.0"
         id="path2870" />
      <path
         fill="none"
         stroke="#221E1F"
         stroke-width="0.45"
         stroke-linecap="round"
         stroke-linejoin="round"
         d="M 130.2 67.15 C 127.5 67.38333 126.21667 68.23333 126.35 69.7 C 126.95 71.433334 128.29999 74.23334 130.4 78.1 L 134.55 85.65 C 135.11667 87.11667 137.1 87.96667 140.5 88.2 L 146.05 88.4 C 147.85 88.333336 148.93333 87.816666 149.3 86.85 C 149.53333 85.683334 149.46666 83.98334 149.1 81.75 C 148.7 79.51667 148.2 77.683334 147.6 76.25 M 137.3 67.0 C 135.26666 66.86667 132.9 66.91667 130.2 67.15"
         id="path2872" />
      <path
         fill="none"
         stroke="#221E1F"
         stroke-width="0.45"
         stroke-linecap="round"
         stroke-linejoin="round"
         d="M 95.65 31.05 C 97.683334 29.816668 100.03333 28.650002 102.7 27.55 C 106.03333 26.183332 108.916664 25.25 111.35 24.75 C 112.75 25.283333 114.183334 28.483332 115.65 34.35 C 117.15 40.18333 118.38333 46.3 119.35 52.7 C 119.95 56.566666 120.35 59.75 120.55 62.25 M 92.75 33.25 C 93.416664 32.55 94.38333 31.816666 95.65 31.05"
         id="path2874" />
      <path
         fill="none"
         stroke="#221E1F"
         stroke-width="0.45"
         stroke-linecap="round"
         stroke-linejoin="round"
         d="M 114.45 17.95 C 118.95 16.416666 123.183334 15.566666 127.15 15.4 C 131.08334 15.333333 135.25 14.833333 139.65 13.9 C 144.01666 13.0 148.23334 9.983334 152.3 4.85 C 153.96667 2.6833332 155.51668 1.7499998 156.95 2.05 C 158.38333 2.35 158.68333 4.3166666 157.85 7.95 C 159.25 6.716666 160.31667 6.45 161.05 7.15 C 161.81667 7.883333 161.96666 9.016666 161.5 10.55 C 160.0 13.483334 158.65 17.316666 157.45 22.05 C 156.21667 26.75 156.88335 31.650002 159.45 36.75 C 162.01666 40.95 164.08333 45.716667 165.65 51.05 C 167.21666 56.35 167.01666 61.466667 165.05 66.4 C 163.05 71.333336 158.0 75.333336 149.9 78.4 M 102.75 27.55 C 106.049995 22.716665 109.95 19.516666 114.45 17.95"
         id="path2876" />
      <path
         fill="none"
         stroke="#221E1F"
         stroke-width="0.45"
         stroke-linecap="round"
         stroke-linejoin="round"
         d="M 163.35 13.75 C 162.01668 16.816668 162.65001 21.816668 165.25 28.75 L 173.65 45.7 C 177.38333 53.066666 179.1 61.0 178.8 69.5 C 178.46667 78.03333 173.18333 86.066666 162.95 93.6 M 161.5 10.55 C 164.33333 7.85 164.95 8.916666 163.35 13.75"
         id="path2878" />
      <path
         fill="none"
         stroke="#221E1F"
         stroke-width="0.45"
         stroke-linecap="round"
         stroke-linejoin="round"
         d="M 151.9 1.2 C 151.13333 0.0333333 149.76666 0.76666665 147.8 3.4 C 147.43333 -0.666667 145.73334 -1.0166671 142.7 2.35 C 140.83333 4.35 138.43333 6.116667 135.5 7.65 C 132.56667 9.216667 127.98333 9.783334 121.75 9.35 L 105.65 8.2 C 99.38333 7.9666667 93.399994 9.15 87.7 11.75 C 82.0 14.316668 77.78333 19.5 75.05 27.3 M 152.25 4.9 C 152.78334 3.6333332 152.66667 2.3999999 151.9 1.2"
         id="path2880" />
      <path
         fill="none"
         stroke="#221E1F"
         stroke-width="0.45"
         stroke-linecap="round"
         stroke-linejoin="round"
         d="M 56.1 27.95 L 75.05 27.3 C 81.183334 27.699999 88.03333 28.949999 95.6 31.05 M 51.0 29.05 L 56.1 27.95"
         id="path2882" />
      <path
         fill="none"
         stroke="#221E1F"
         stroke-width="0.45"
         stroke-linecap="round"
         stroke-linejoin="round"
         d="M 31.3 31.0 C 32.833332 25.866665 34.716667 22.066666 36.95 19.6 C 40.216667 20.133333 43.983334 21.483334 48.25 23.65 C 52.55 25.85 55.183334 27.283335 56.15 27.95 M 29.05 44.3 C 29.016666 40.533333 29.766666 36.1 31.3 31.0"
         id="path2884" />
      <path
         fill="none"
         stroke="#221E1F"
         stroke-width="0.45"
         stroke-linecap="round"
         stroke-linejoin="round"
         d="M 42.35 53.6 C 43.55 56.93333 44.483334 58.649998 45.15 58.75 C 45.516666 58.95 45.899998 58.733334 46.3 58.1 C 46.7 57.466667 47.05 55.06667 47.35 50.9 L 44.75 50.85 C 43.283333 51.916668 42.483334 52.833336 42.35 53.6 Z"
         id="path2886" />
      <path
         fill="none"
         stroke="#221E1F"
         stroke-width="0.45"
         stroke-linecap="round"
         stroke-linejoin="round"
         d="M 59.05 49.7 L 52.95 46.45 C 51.183334 45.45 50.566666 44.283333 51.1 42.95 C 54.166668 39.75 58.600002 37.466667 64.4 36.1 C 70.2 34.7 74.049995 34.333336 75.95 35.0 C 78.61666 36.666668 79.11666 38.2 77.45 39.6 L 67.35 46.15 C 63.45 48.45 60.683334 49.633335 59.05 49.7 Z"
         id="path2888" />
      <path
         fill="none"
         stroke="#221E1F"
         stroke-width="0.45"
         stroke-linecap="round"
         stroke-linejoin="round"
         d="M 55.75 61.2 C 55.649998 63.833336 55.966663 65.5 56.7 66.2 C 59.733334 65.066666 61.566666 63.983334 62.2 62.95 C 62.6 62.35 63.0 61.35 63.4 59.95 C 63.8 58.516666 63.85 57.5 63.55 56.9 C 63.016666 56.533333 61.783333 56.899998 59.85 58.0 C 57.916668 59.066666 56.550003 60.13333 55.75 61.2 Z"
         id="path2890" />
      <path
         fill="none"
         stroke="#221E1F"
         stroke-width="0.45"
         stroke-linecap="round"
         stroke-linejoin="round"
         d="M 94.8 145.05 L 96.95 145.55 M 93.3 144.65 L 94.8 145.05"
         id="path2892" />
      <path
         fill="none"
         stroke="#221E1F"
         stroke-width="0.45"
         stroke-linecap="round"
         stroke-linejoin="round"
         d="M 103.25 147.05 L 105.0 147.2 M 102.05 146.95 L 103.25 147.05"
         id="path2894" />
      <path
         fill="none"
         stroke="#221E1F"
         stroke-width="0.45"
         stroke-linecap="round"
         stroke-linejoin="round"
         d="M 141.5 143.45 L 143.55 144.2"
         id="path2896" />
      <path
         fill="none"
         stroke="#221E1F"
         stroke-width="0.45"
         stroke-linecap="round"
         stroke-linejoin="round"
         d="M 150.0 145.05 L 152.1 145.2 M 148.4 144.8 L 150.0 145.05"
         id="path2898" />
    </g>
  </g>
</svg>
