<?xml version="1.0" encoding="UTF-8" standalone="no"?>
<!-- Created with Inkscape (http://www.inkscape.org/) -->

<svg
   xmlns:dc="http://purl.org/dc/elements/1.1/"
   xmlns:cc="http://creativecommons.org/ns#"
   xmlns:rdf="http://www.w3.org/1999/02/22-rdf-syntax-ns#"
   xmlns:svg="http://www.w3.org/2000/svg"
   xmlns="http://www.w3.org/2000/svg"
   xmlns:sodipodi="http://sodipodi.sourceforge.net/DTD/sodipodi-0.dtd"
   xmlns:inkscape="http://www.inkscape.org/namespaces/inkscape"
   id="svg3729"
   version="1.1"
   inkscape:version="0.48.1 "
   width="186.71974"
   height="172.93127"
   xml:space="preserve"
   sodipodi:docname="pokemon-007.pdf"><metadata
     id="metadata3735"><rdf:RDF><cc:Work
         rdf:about=""><dc:format>image/svg+xml</dc:format><dc:type
           rdf:resource="http://purl.org/dc/dcmitype/StillImage" /><dc:title></dc:title></cc:Work></rdf:RDF></metadata><defs
     id="defs3733" /><sodipodi:namedview
     pagecolor="#ffffff"
     bordercolor="#666666"
     borderopacity="1"
     objecttolerance="10"
     gridtolerance="10"
     guidetolerance="10"
     inkscape:pageopacity="0"
     inkscape:pageshadow="2"
     inkscape:window-width="640"
     inkscape:window-height="480"
     id="namedview3731"
     showgrid="false"
     fit-margin-top="0"
     fit-margin-left="0"
     fit-margin-right="0"
     fit-margin-bottom="0"
     inkscape:zoom="1.5626667"
     inkscape:cx="114.90838"
     inkscape:cy="88.672314"
     inkscape:window-x="0"
     inkscape:window-y="0"
     inkscape:window-maximized="0"
     inkscape:current-layer="g3737" /><g
     id="g3737"
     inkscape:groupmode="layer"
     inkscape:label="pokemon-007"
     transform="matrix(1.25,0,0,-1.25,-43.966826,180.31877)"><g
       id="g3739"
       transform="scale(0.24,0.24)"><path
         d="m 214.707,535.867 c -7.5,-8.328 -11.246,-14.16 -11.246,-17.699 l 3.332,-4.164 2.289,2.496 c 1.457,1.461 2.707,2.086 4.164,1.875 3.957,-0.207 8.125,-7.496 12.496,-21.449 5,-23.949 5.207,-41.649 0.418,-53.52 -1.457,-2.914 -5.414,-3.957 -11.871,-3.125 -5.832,0.836 -10.203,2.293 -13.121,4.582 -0.832,-2.914 -2.707,-7.078 -5.414,-12.285 -2.082,-3.543 -2.914,-7.289 -2.707,-10.832 1.668,-6.453 6.039,-10.617 12.914,-12.91 7.285,-11.035 19.367,-21.031 36.648,-29.57 21.868,-11.039 47.485,-17.078 76.637,-18.536 8.121,-0.625 21.242,2.5 39.359,9.372 16.872,6.457 27.489,11.871 31.864,16.035 l 8.953,9.996 c 4.375,3.75 7.082,6.457 8.332,8.332 l 7.082,18.117 c 3.539,8.746 6.66,12.703 9.371,11.66 3.953,3.125 7.496,13.121 10.41,29.781 2.082,12.704 3.332,26.239 3.957,40.399 0.625,14.371 1.875,23.742 4.164,28.113 3.543,7.289 10.414,7.5 20.41,0.836 -8.539,18.531 -23.949,33.527 -46.441,45.399 -23.113,12.285 -49.98,18.949 -80.801,19.992 -32.695,0.414 -60.808,-8.121 -84.758,-25.407 -10.203,-7.5 -22.488,-19.992 -36.441,-37.488"
         style="fill:#a5e8c4;fill-opacity:1;fill-rule:nonzero;stroke:none"
         id="path3741"
         inkscape:connector-curvature="0" /><path
         d="m 265.309,353.859 c -8.954,13.536 -17.075,22.075 -24.157,26.032 -4.996,2.5 -9.996,5.621 -15.199,9.371 l -10.414,7.703 -32.695,0.836 -30.196,-2.5 c -0.835,-1.457 0.415,-4.789 3.957,-10.414 3.958,-6.039 5.622,-10.41 5.204,-12.91 -1.039,-3.539 -3.746,-7.082 -8.121,-11.039 -3.747,-3.122 -5.415,-5.829 -4.997,-7.911 0.414,-2.293 3.122,-4.582 7.914,-6.875 l 11.661,-6.453 c 7.289,-10.621 18.742,-21.867 34.152,-33.738 21.035,-16.035 39.359,-23.324 55.395,-21.656 9.371,0 16.035,14.16 19.578,42.273 0.625,4.996 -3.332,14.16 -12.082,27.281"
         style="fill:#a5e8c4;fill-opacity:1;fill-rule:nonzero;stroke:none"
         id="path3743"
         inkscape:connector-curvature="0" /><path
         d="m 464.188,416.543 c -1.665,0.625 -4.372,-0.836 -8.329,-3.957 -3.539,-3.125 -7.082,-3.957 -10.203,-2.5 -2.707,1.25 -6.457,5.832 -11.664,13.535 -4.582,6.875 -8.121,10.414 -10.828,10.414 -2.707,-0.207 -5.832,-4.582 -8.953,-13.328 -3.957,-10.414 -6.664,-16.453 -8.125,-18.117 l -9.578,-8.957 c -3.75,-3.332 -6.039,-6.871 -6.664,-10.41 0.207,-2.293 1.875,-4.582 5.414,-6.457 3.957,-2.289 6.457,-4.164 7.082,-5.207 1.039,-6.039 3.957,-14.579 8.328,-25.196 l 11.453,-22.492 c -1.039,13.121 6.457,20.824 22.91,23.113 11.453,1.875 28.321,-5.203 50.395,-21.238 6.457,-4.582 10.828,-5.414 13.121,-2.5 2.914,3.539 3.957,13.328 3.125,28.945 -2.293,6.25 -7.5,14.786 -15.621,25.825 -9.371,12.91 -17.492,20.824 -24.363,23.742 l -2.293,7.078 c -0.832,3.332 -2.5,5.832 -5.207,7.707"
         style="fill:#a5e8c4;fill-opacity:1;fill-rule:nonzero;stroke:none"
         id="path3745"
         inkscape:connector-curvature="0" /><path
         d="m 295.297,51.2695 c 0.836,-2.082 4.168,-3.1211 10.207,-3.332 l 40.816,3.543 c 22.282,2.914 36.028,5.6211 40.817,8.1211 4.375,8.539 1.875,19.7851 -7.289,33.7343 l -22.493,28.7421 c -11.035,14.785 -15.824,25.613 -14.367,32.485 l -24.156,22.285 c -8.125,6.871 -12.496,8.535 -13.539,4.996 -5.203,-3.125 -10.203,-7.914 -15.199,-14.367 -5.625,-7.289 -9.789,-15.204 -12.078,-23.743 -6.043,-22.281 0.621,-42.484 20.199,-60.3942 -20.41,-17.6992 -18.953,-24.9882 4.371,-22.2812 -5.828,-4.3711 -8.328,-7.4961 -7.289,-9.7891"
         style="fill:#a5e8c4;fill-opacity:1;fill-rule:nonzero;stroke:none"
         id="path3747"
         inkscape:connector-curvature="0" /><path
         d="m 472.727,175.387 c -8.122,-9.371 -13.118,-20.407 -14.993,-33.528 -1.875,-9.371 -1.875,-22.699 0,-40.398 l 5.621,-36.4454 c -0.207,-2.914 -1.457,-7.082 -4.164,-12.7031 -2.289,-4.7891 -2.914,-7.9141 -2.289,-9.7891 0.621,-2.289 4.164,-3.1211 10.828,-2.914 l 14.161,0.207 11.871,-10.2031 c 4.371,-3.332 9.16,-3.5391 14.367,-0.625 -1.039,6.664 0.418,13.7461 4.375,21.4492 l 11.66,19.7852 c 4.375,7.289 7.5,21.4492 9.789,42.4803 2.289,22.078 1.875,38.113 -1.668,48.317 -1.457,4.582 -3.953,8.953 -7.496,12.91 l -8.121,8.121 c -2.082,2.293 -2.707,3.957 -2.082,5 1.043,1.25 4.371,2.5 10.203,3.539 -22.281,3.957 -39.566,-1.25 -52.062,-15.203"
         style="fill:#a5e8c4;fill-opacity:1;fill-rule:nonzero;stroke:none"
         id="path3749"
         inkscape:connector-curvature="0" /><path
         d="m 753.238,232.867 c -15.41,26.446 -35.609,40.606 -60.808,42.067 -27.696,-0.625 -51.852,-14.789 -72.055,-42.903 l -18.531,-29.363 c -5.414,-9.16 -9.371,-13.953 -11.871,-14.578 l -2.082,-5.414 c 6.664,0.625 11.66,-2.707 14.785,-9.578 l 8.953,-22.7 c 5.625,-12.285 12.703,-21.449 21.242,-27.281 11.664,-8.121 22.492,-6.039 32.695,6.246 -2.289,5.207 -3.957,9.789 -4.582,13.539 l -0.832,12.078 c 2.5,0.208 4.789,-1.25 7.082,-4.164 l 6.246,-9.789 c 6.872,-9.371 17.079,-13.535 31.028,-12.496 15.203,1.457 28.949,11.664 41.027,30.614 l 11.246,17.492 c 3.539,4.582 6.664,6.039 9.785,4.375 1.668,4.371 1.25,11.453 -1.039,21.242 -2.5,10.41 -6.664,20.617 -12.289,30.613"
         style="fill:#a5e8c4;fill-opacity:1;fill-rule:nonzero;stroke:none"
         id="path3751"
         inkscape:connector-curvature="0" /><path
         d="m 476.477,268.684 c -5.625,3.957 -14.372,12.289 -26.239,25.199 -10.207,4.582 -18.746,12.703 -25.617,24.574 l -6.246,12.285 -3.75,7.082 c -27.695,-14.371 -47.062,-21.867 -58.102,-22.492 -4.164,-0.207 -8.121,0.625 -11.871,2.289 l -10.203,5.207 c -11.871,5.207 -31.238,20.203 -58.101,44.774 3.539,-13.118 3.539,-29.989 0,-50.188 -3.75,-21.867 -9.996,-32.902 -18.535,-33.109 1.25,-13.539 7.289,-32.071 18.328,-55.606 11.035,-23.949 20.824,-39.148 29.152,-45.605 l 4.375,0.418 c 2.5,-1.043 9.789,-7.289 22.074,-18.746 13.535,-12.493 23.742,-21.032 30.406,-25.407 -4.375,11.039 -2.5,17.704 5.204,19.993 l 27.906,-1.872 30.82,-6.664 c 11.664,-1.875 22.91,-1.668 33.738,0.207 7.289,23.739 22.493,37.278 45.399,40.61 3.957,3.539 6.664,6.453 8.121,8.953 2.289,3.957 3.957,9.996 5.414,18.117 -6.871,12.289 -10.828,22.492 -12.078,30.199 l 0,19.157 c -7.496,-8.539 -17.492,-8.329 -30.195,0.625"
         style="fill:#ebe67d;fill-opacity:1;fill-rule:nonzero;stroke:none"
         id="path3753"
         inkscape:connector-curvature="0" /><path
         d="m 504.383,423.621 1.039,20.41 c -0.414,15.828 -6.664,25.199 -18.949,27.907 3.539,-6.04 4.996,-12.497 4.789,-19.786 -0.207,-4.375 -1.25,-11.246 -3.539,-20.41 -2.082,-8.328 -2.707,-17.074 -1.875,-26.238 1.039,-11.035 4.164,-19.574 9.164,-26.031 8.328,-11.453 13.742,-20.407 16.449,-26.446 5.414,-12.082 6.457,-23.742 3.332,-35.195 0.211,-5.207 -0.832,-13.535 -3.121,-24.574 l -0.836,-28.945 c -0.207,-8.54 0,-15.204 0.836,-19.579 1.871,-9.996 9.16,-18.949 22.281,-26.656 13.746,-8.328 24.781,-19.992 32.902,-34.777 6.458,-11.871 8.747,-20.824 6.665,-26.446 4.375,9.372 3.125,21.239 -3.957,35.192 l -12.911,22.074 -15.203,24.992 c -3.957,8.539 -4.164,22.282 -0.207,41.649 l 4.582,22.699 c 1.457,8.121 1.875,14.785 1.25,19.992 -0.418,11.039 -7.082,25.824 -19.785,44.567 l -13.953,20.199 c -4.582,7.082 -7.289,12.703 -8.328,16.871 -0.836,4.164 -1.043,10.41 -0.625,18.531"
         style="fill:#d9fcf5;fill-opacity:1;fill-rule:nonzero;stroke:none"
         id="path3755"
         inkscape:connector-curvature="0" /><path
         d="m 505.008,451.527 c 0.625,-5.207 0.625,-13.535 -0.418,-25.199 -1.043,-9.785 -0.418,-18.117 1.457,-24.57 l 8.957,-15.828 13.742,-19.992 c 12.289,-17.911 18.328,-32.071 18.328,-42.485 0.625,-5.207 0.207,-12.078 -1.461,-21.031 l -5.203,-24.156 c -3.957,-20.828 -2.293,-36.028 4.789,-45.817 10.621,-14.578 20.824,-24.156 30.614,-28.531 12.703,-6.039 20.199,-0.207 22.906,17.285 4.789,42.692 1.664,85.59 -9.578,128.699 -7.289,21.032 -19.161,41.649 -35.196,61.434 -16.867,21.031 -33.113,34.57 -48.937,40.191"
         style="fill:#d26906;fill-opacity:1;fill-rule:nonzero;stroke:none"
         id="path3757"
         inkscape:connector-curvature="0" /><path
         d="m 462.523,533.785 c -9.789,7.082 -16.453,6.457 -20.41,-2.082 -2.707,-5.414 -4.164,-14.785 -4.371,-28.113 -1.25,-39.152 -5.832,-62.266 -13.535,-69.348 2.289,-0.625 5.828,-4.582 10.41,-11.871 4.375,-7.285 9.164,-11.66 13.953,-13.535 2.914,0.625 6.871,2.918 11.664,6.664 2.289,1.875 4.789,1.043 7.496,-2.5 11.036,9.996 16.036,27.699 14.579,52.898 0,8.954 -2.918,21.864 -8.539,39.149 -4.375,13.539 -8.122,23.117 -11.247,28.738"
         style="fill:#70b0b0;fill-opacity:1;fill-rule:nonzero;stroke:none"
         id="path3759"
         inkscape:connector-curvature="0" /><path
         d="m 276.348,367.602 c -8.746,1.461 -19.993,5.207 -33.528,11.246 4.996,-3.957 11.871,-12.703 20.825,-26.239 l 13.953,-23.324 c 0.625,0.625 1.039,6.039 1.25,16.242 0,11.039 -0.832,18.536 -2.5,22.075"
         style="fill:#70b0b0;fill-opacity:1;fill-rule:nonzero;stroke:none"
         id="path3761"
         inkscape:connector-curvature="0" /><path
         d="m 185.344,361.148 c -2.5,0.625 -6.039,4.372 -10.832,10.829 -2.707,0 -4.578,-1.25 -5.203,-3.75 l -1.043,-7.079 -0.832,-6.457 c 0.207,-2.289 1.457,-4.375 3.746,-6.039 2.293,-1.457 5.418,-0.207 8.957,3.332 3.332,3.539 4.996,6.457 5.207,9.164"
         style="fill:#70b0b0;fill-opacity:1;fill-rule:nonzero;stroke:none"
         id="path3763"
         inkscape:connector-curvature="0" /><path
         d="m 398.59,374.684 -6.664,4.164 c -1.875,1.457 -2.289,3.957 -1.457,7.289 -17.078,-11.453 -39.153,-19.992 -66.434,-25.199 l 41.445,1.875 c 16.45,3.125 27.489,7.082 33.11,11.871"
         style="fill:#70b0b0;fill-opacity:1;fill-rule:nonzero;stroke:none"
         id="path3765"
         inkscape:connector-curvature="0" /><path
         d="m 449.613,376.766 c 1.457,3.75 1.664,7.496 0.832,11.453 -0.625,3.75 -3.332,7.496 -8.121,11.039 -4.375,3.121 -7.914,4.996 -10.832,5.207 -7.703,-0.625 -13.117,-5.418 -15.824,-14.371 -1.043,-3.75 -1.457,-7.289 -1.043,-10.414 0.418,-3.539 1.668,-5.828 3.539,-6.871 3.957,-2.289 8.539,-3.957 14.164,-4.789 l 11.66,1.043 c 2.293,1.457 4.164,3.953 5.625,7.703"
         style="fill:#70b0b0;fill-opacity:1;fill-rule:nonzero;stroke:none"
         id="path3767"
         inkscape:connector-curvature="0" /><path
         d="m 421.914,324.285 c 7.914,-20.199 23.117,-31.859 45.399,-35.402 13.953,-2.707 25.613,-0.414 34.777,7.082 6.457,5.207 10.621,11.453 12.078,18.742 3.125,13.121 2.293,25.824 -2.707,38.109 1.25,-16.867 0,-26.863 -3.746,-29.777 -2.918,-2.293 -7.914,-0.625 -15.203,5.203 -7.707,6.039 -16.242,11.039 -25.199,14.789 -11.454,4.578 -20.618,5.828 -27.696,3.539 -7.5,-2.293 -12.496,-5.414 -15.203,-9.371 -2.293,-3.125 -3.125,-7.496 -2.5,-12.914"
         style="fill:#70b0b0;fill-opacity:1;fill-rule:nonzero;stroke:none"
         id="path3769"
         inkscape:connector-curvature="0" /><path
         d="m 393.801,79.5938 c -5.207,12.0781 -3.332,24.5742 5.621,37.6912 -14.367,6.039 -33.32,18.328 -56.434,37.278 -2.707,-8.54 5.414,-23.739 24.364,-46.024 7.914,-9.371 13.328,-16.8671 16.453,-22.6992 5.832,-10.621 6.664,-19.5742 2.707,-26.4453 5.621,1.8711 8.953,3.9571 9.789,5.8282 1.039,2.2929 0.207,7.082 -2.5,14.3711"
         style="fill:#70b0b0;fill-opacity:1;fill-rule:nonzero;stroke:none"
         id="path3771"
         inkscape:connector-curvature="0" /><path
         d="m 523.332,190.383 c -5.414,-0.625 -8.539,-1.875 -9.164,-3.332 -0.625,-1.457 0.418,-3.539 2.707,-6.457 l 8.332,-9.371 c 3.539,-4.371 6.039,-8.539 7.496,-12.496 2.707,-8.122 2.914,-23.114 0.625,-45.188 -2.289,-23.1171 -6.246,-38.7343 -11.66,-46.8554 l -9.789,-17.0781 c -3.539,-7.0821 -4.789,-13.9532 -3.75,-20.6172 l 11.039,8.332 c 5.621,3.1211 12.496,3.332 20.406,0.207 11.246,-3.957 17.496,-2.707 18.953,4.1641 0.414,2.5 0.414,6.6641 -0.211,12.2891 l -1.664,16.0351 c 3.539,24.1563 4.789,46.2304 3.539,66.4294 -0.414,11.246 -3.957,22.493 -10.828,33.739 -7.703,12.703 -16.242,19.367 -26.031,20.199"
         style="fill:#70b0b0;fill-opacity:1;fill-rule:nonzero;stroke:none"
         id="path3773"
         inkscape:connector-curvature="0" /><path
         d="m 615.586,145.609 -11.453,25.821 c -2.707,6.457 -5.832,10.207 -9.371,11.664 l -6.246,0.625 -4.168,-7.496 c -2.289,-3.75 -5.203,-6.875 -8.328,-9.371 -0.625,-9.582 -6.247,-16.872 -16.454,-21.661 1.25,-17.699 1.668,-29.57 1.043,-35.402 15.204,-4.371 37.903,-6.871 68.305,-7.078 31.863,-0.211 52.274,2.289 61.227,7.496 -6.664,2.289 -11.871,4.789 -15.411,7.914 -3.125,2.707 -6.25,6.453 -9.371,11.66 -9.789,-12.91 -20.617,-14.992 -32.695,-6.246 -6.039,4.371 -11.664,11.66 -17.078,22.074"
         style="fill:#70b0b0;fill-opacity:1;fill-rule:nonzero;stroke:none"
         id="path3775"
         inkscape:connector-curvature="0" /><path
         d="m 766.777,181.426 c -3.543,2.711 -8.332,0 -13.953,-8.121 L 739.703,151.23 c -4.582,-7.078 -10.621,-12.703 -17.91,-16.867 -9.16,-5.207 -18.742,-6.871 -28.738,-5 -8.328,1.461 -14.992,6.039 -20.2,13.746 l -5.621,8.121 c -2.082,2.708 -4.375,4.165 -6.875,4.79 -0.832,-8.954 0.836,-17.7 4.793,-25.821 5.414,-10.832 14.161,-17.496 26.032,-19.992 11.035,-1.875 22.074,-0.211 32.902,4.789 9.164,4.371 16.66,10.414 22.281,17.91 12.289,15.203 18.953,31.239 20.41,48.52"
         style="fill:#70b0b0;fill-opacity:1;fill-rule:nonzero;stroke:none"
         id="path3777"
         inkscape:connector-curvature="0" /><path
         d="m 672.855,190.383 c 6.872,6.039 14.372,8.328 22.493,7.289 4.582,-0.625 10.203,-2.918 16.867,-6.875 4.375,-2.496 7.496,-7.078 9.371,-13.535 1.875,-6.664 1.043,-12.078 -2.289,-16.449 8.121,7.285 10.621,15.41 7.91,24.363 -1.039,3.75 -4.164,7.914 -8.953,12.496 -5.621,5.414 -10.828,8.328 -16.035,8.746 -10.203,1.039 -19.992,-4.164 -29.364,-16.035"
         style="fill:#70b0b0;fill-opacity:1;fill-rule:nonzero;stroke:none"
         id="path3779"
         inkscape:connector-curvature="0" /><path
         d="m 559.359,216.207 -12.496,13.949 7.5,-12.492 16.45,-28.531 c 3.957,-8.328 5.625,-15.828 5.207,-22.281 5.832,4.371 11.039,12.91 15.617,25.406 3.543,9.16 5.625,17.285 6.664,24.57 -5.621,-20.199 -18.742,-20.406 -38.942,-0.621"
         style="fill:#b50d00;fill-opacity:1;fill-rule:nonzero;stroke:none"
         id="path3781"
         inkscape:connector-curvature="0" /><path
         d="m 549.156,384.055 -34.363,2.082 11.453,-16.242 c 1.461,3.121 4.793,6.039 9.582,8.953 4.371,2.5 8.953,4.164 13.328,5.207"
         style="fill:#b50d00;fill-opacity:1;fill-rule:nonzero;stroke:none"
         id="path3783"
         inkscape:connector-curvature="0" /><path
         d="m 407.547,114.371 c 14.785,-4.789 31.445,-6.664 49.562,-5.414 -0.625,5.621 -0.832,12.703 -0.418,21.656 0.625,9.996 1.668,16.871 3.332,20.617 -15.617,-3.332 -37.277,-1.039 -65.179,6.875 -10.621,3.122 -19.578,3.54 -26.656,1.665 -9.372,-2.29 -11.665,-8.954 -6.458,-19.993 16.036,-12.285 31.446,-20.617 45.817,-25.406"
         style="fill:#bab517;fill-opacity:1;fill-rule:nonzero;stroke:none"
         id="path3785"
         inkscape:connector-curvature="0" /><path
         d="m 513.129,200.586 c -1.457,-2.707 -4.375,-5.832 -8.332,-8.953 l 20.617,-1.668 c 5,-1.664 10.621,-4.789 16.867,-9.371 l -23.945,38.945 C 517.293,211 515.418,204.75 513.129,200.586"
         style="fill:#bab517;fill-opacity:1;fill-rule:nonzero;stroke:none"
         id="path3787"
         inkscape:connector-curvature="0" /><path
         d="m 450.652,294.09 c 5.414,-7.289 12.496,-14.578 21.036,-22.074 14.16,-12.286 25.82,-13.953 35.191,-4.582 l 4.375,24.156 c 2.914,13.746 3.957,21.453 2.914,23.117 -10.203,-26.238 -31.234,-33.109 -63.516,-20.617"
         style="fill:#bab517;fill-opacity:1;fill-rule:nonzero;stroke:none"
         id="path3789"
         inkscape:connector-curvature="0" /><path
         d="m 399.215,374.891 c -11.453,-7.289 -27.281,-11.868 -47.688,-13.953 -24.16,-2.29 -49.148,-0.208 -75.179,6.664 17.91,-18.118 33.113,-31.235 45.398,-39.567 5.207,-3.539 11.871,-7.082 19.574,-10.203 l 8.957,-2.707 11.453,0.207 c 10.415,1.875 28.114,9.164 53.313,22.074 -7.289,17.492 -11.453,28.532 -12.289,33.114 -0.625,1.664 -1.871,3.121 -3.539,4.371"
         style="fill:#bab517;fill-opacity:1;fill-rule:nonzero;stroke:none"
         id="path3791"
         inkscape:connector-curvature="0" /><path
         d="m 475.645,422.789 c -0.836,-2.289 -1.043,-6.457 -0.836,-12.285 l 1.043,-10.414 16.242,-16.66 c -3.121,7.496 -5.207,16.035 -5.828,25.824 -0.625,8.953 0,15.41 1.457,19.781 6.039,16.453 5.828,30.824 -0.836,42.692 l -5.203,0.625 0.625,-6.454 c 2.289,-1.46 3.539,-5.207 3.539,-10.832 0,-6.039 -1.457,-10.828 -4.164,-14.574 -0.625,-4.375 -2.5,-10.414 -6.039,-17.703"
         style="fill:#aed1ca;fill-opacity:1;fill-rule:nonzero;stroke:none"
         id="path3793"
         inkscape:connector-curvature="0" /><path
         d="m 507.09,245.57 c 1.664,-7.5 7.703,-19.992 17.91,-37.488 7.703,-13.117 13.742,-22.488 17.906,-28.113 8.332,-11.66 13.746,-23.324 16.035,-35.192 7.289,2.707 12.497,7.286 15.204,13.743 0.207,10.203 -4.165,21.66 -13.118,33.945 -6.043,8.121 -11.664,14.578 -17.285,18.949 l -14.996,10.207 c -7.914,5.828 -12.91,11.246 -14.785,16.242 -1.875,4.789 -2.914,12.91 -2.707,23.95 l 0.418,31.027 c -1.875,-5.621 -3.332,-12.91 -4.375,-21.863 -1.457,-11.039 -1.457,-19.368 -0.207,-25.407"
         style="fill:#aed1ca;fill-opacity:1;fill-rule:nonzero;stroke:none"
         id="path3795"
         inkscape:connector-curvature="0" /><path
         d="m 475.434,422.371 c -3.957,-5.621 -6.664,-8.953 -7.704,-9.578 l 3.54,-10.828 c 1.668,-0.625 3.125,-1.457 4.375,-2.5 -1.043,12.078 -1.043,19.785 -0.211,22.906"
         style="fill:#bab517;fill-opacity:1;fill-rule:nonzero;stroke:none"
         id="path3797"
         inkscape:connector-curvature="0" /><path
         d="m 485.641,454.859 c 0.207,6.871 -1.043,10.414 -3.332,11.039 0.832,-9.582 0.625,-18.121 -0.836,-25.824 2.707,3.125 3.957,7.914 4.168,14.785"
         style="fill:#000000;fill-opacity:1;fill-rule:nonzero;stroke:none"
         id="path3799"
         inkscape:connector-curvature="0" /><path
         d="m 203.254,469.645 c -1.461,-0.625 -2.293,-2.497 -2.086,-5.415 0,-9.578 2.5,-17.285 7.5,-23.113 6.039,-1.461 11.242,-1.461 16.035,0 2.496,3.121 4.164,9.16 4.996,18.324 0.625,6.872 0.625,12.079 0.207,16.036 -2.289,5.832 -4.164,8.746 -5.203,8.746 -1.043,0.207 -1.461,-1.457 -1.25,-4.789 l 2.707,-20.411 c 0,-4.582 -2.082,-7.289 -6.457,-8.121 -3.539,-0.625 -6.246,-0.414 -8.328,1.043 -2.293,1.664 -3.75,3.957 -4.582,7.078 l -0.832,5.625 c -0.211,4.165 -1.25,5.829 -2.707,4.997"
         style="fill:#d41554;fill-opacity:1;fill-rule:nonzero;stroke:none"
         id="path3801"
         inkscape:connector-curvature="0" /><path
         d="m 396.715,480.891 c -3.121,1.043 -4.371,-0.832 -3.957,-5.832 1.043,-11.036 -3.957,-19.368 -14.992,-24.782 -3.957,-0.625 -6.664,-0.625 -8.332,0 l -3.746,3.125 c -4.375,2.289 -7.083,1.457 -8.122,-2.707 -0.836,-3.957 0,-6.871 2.497,-8.332 2.707,-2.289 6.875,-4.164 12.703,-5.203 l 18.746,-0.418 c 2.707,1.25 5.828,5.414 8.953,12.703 3.125,7.082 4.375,12.703 4.164,16.868 -2.289,8.539 -4.789,13.328 -7.914,14.578"
         style="fill:#d41554;fill-opacity:1;fill-rule:nonzero;stroke:none"
         id="path3803"
         inkscape:connector-curvature="0" /><path
         d="m 219.078,503.59 -2.289,-9.164 c -1.25,-4.789 -2.707,-7.91 -4.375,-9.16 -2.5,-1.875 -4.582,-2.707 -6.039,-2.293 -2.289,0.625 -4.371,3.332 -6.246,8.121 l -1.457,-12.078 0.414,-10.828 1.875,-6.872 c 0.207,6.872 1.25,9.786 3.125,8.539 2.082,-1.25 2.914,-3.332 2.289,-6.457 0,-6.039 1.875,-9.789 5.414,-11.664 l 9.582,-0.207 c 3.746,1.457 5.414,5.414 4.789,11.664 l -2.707,12.493 c -0.625,6.457 -0.211,9.164 1.457,8.332 l 4.164,-6.457 c 2.082,-4.371 1.25,0.625 -2.289,15.203 -3.332,13.121 -6.664,20.824 -9.789,23.324 l 2.293,-6.664 c 0.621,-1.875 0.414,-3.957 -0.211,-5.832"
         style="fill:#000000;fill-opacity:1;fill-rule:nonzero;stroke:none"
         id="path3805"
         inkscape:connector-curvature="0" /><path
         d="m 368.188,517.125 -3.333,-4.164 8.536,0.625 c 2.5,-1.457 4.168,-3.75 5.207,-6.871 1.25,-3.125 1.043,-7.914 -0.625,-14.578 -2.082,-7.707 -5.207,-12.285 -9.578,-14.16 l -10.829,-0.836 c -2.918,1.043 -4.789,2.711 -5.625,5.418 -0.625,-2.707 -0.832,-7.914 -0.625,-15.829 0.211,-8.121 0.625,-13.535 1.668,-16.242 1.664,-5.418 3.746,-7.914 6.039,-7.707 -2.293,3.539 -2.707,6.871 -0.832,9.578 1.664,2.5 3.539,3.332 5.622,2.5 l 4.582,-3.332 c 1.875,-1.457 3.957,-2.289 6.246,-2.082 12.078,3.75 18.117,12.285 18.117,25.614 -0.625,4.375 0.418,6.457 3.125,6.039 3.125,-0.625 6.039,-5.414 8.746,-13.95 0.625,8.954 -0.832,18.118 -4.789,27.903 -2.707,7.082 -6.039,12.703 -9.578,17.078 -5.625,4.789 -13.121,6.457 -22.074,4.996"
         style="fill:#000000;fill-opacity:1;fill-rule:nonzero;stroke:none"
         id="path3807"
         inkscape:connector-curvature="0" /><path
         d="m 390.051,512.754 c 10.832,-15.828 15.828,-29.781 14.996,-41.859 -0.625,-16.454 -5,-27.907 -13.535,-34.153 9.16,0.418 14.785,2.289 16.66,5.832 3.539,6.664 4.789,16.449 3.746,29.153 -1.25,18.121 -8.539,31.656 -21.867,41.027"
         style="fill:#ffffff;fill-opacity:1;fill-rule:nonzero;stroke:none"
         id="path3809"
         inkscape:connector-curvature="0" /><path
         d="m 379.43,502.551 c -1.871,10.203 -6.664,13.742 -14.367,11.035 -1.875,-1.875 -4.583,-6.664 -7.915,-14.367 -3.539,-8.125 -5.414,-13.953 -5.414,-17.285 l 6.871,-5 9.372,1.043 c 3.543,1.25 6.457,4.996 8.957,11.453 2.289,5.621 3.121,9.996 2.496,13.121"
         style="fill:#ffffff;fill-opacity:1;fill-rule:nonzero;stroke:none"
         id="path3811"
         inkscape:connector-curvature="0" /><path
         d="m 207.207,514.211 -7.078,-22.699 c 1.457,-5.207 3.539,-7.914 6.457,-8.539 2.707,-0.414 4.789,0.832 6.66,3.75 1.668,1.875 3.543,7.078 5.625,15.41 1.457,7.703 0.207,12.91 -4.164,16.035 -2.918,0.625 -5.414,-0.625 -7.5,-3.957"
         style="fill:#ffffff;fill-opacity:1;fill-rule:nonzero;stroke:none"
         id="path3813"
         inkscape:connector-curvature="0" /><path
         d="m 199.297,456.316 1.871,-10.828 c 0.625,-1.043 3.125,-2.289 7.5,-3.957 -4.375,4.375 -6.875,11.039 -7.707,20.199 l -2.082,5 0.418,-10.414"
         style="fill:#ffffff;fill-opacity:1;fill-rule:nonzero;stroke:none"
         id="path3815"
         inkscape:connector-curvature="0" /><path
         d="m 367.77,516.5 c 3.125,3.543 6.457,5.832 9.996,6.875"
         style="fill:none;stroke:#000000;stroke-width:4.16499996;stroke-linecap:round;stroke-linejoin:round;stroke-miterlimit:10;stroke-opacity:1;stroke-dasharray:none"
         id="path3817"
         inkscape:connector-curvature="0" /><path
         d="m 367.77,516.5 -7.707,-11.035 c -4.579,-8.121 -7.286,-16.035 -8.329,-23.742 -0.832,-6.453 -0.832,-13.535 -0.207,-21.239 0.625,-8.125 2.082,-13.121 3.957,-15.203 4.579,-5.414 12.911,-8.332 24.989,-8.957 9.789,-0.414 17.91,0.418 24.367,2.5 3.539,2.293 5.828,8.539 6.664,18.742 0.832,9.164 0.414,17.079 -1.043,23.743 -1.875,8.953 -6.039,16.867 -12.285,23.949 -8.539,9.785 -18.535,13.535 -30.406,11.242 z"
         style="fill:none;stroke:#000000;stroke-width:4.16499996;stroke-linecap:round;stroke-linejoin:round;stroke-miterlimit:10;stroke-opacity:1;stroke-dasharray:none"
         id="path3819"
         inkscape:connector-curvature="0" /><path
         d="m 351.941,482.141 c 3.125,-5.832 8.747,-7.082 16.454,-3.957 3.125,1.25 5.832,4.582 8.121,10.203 2.082,5 2.914,9.789 2.707,14.164 -0.207,4.371 -1.457,7.496 -3.957,9.785 -2.707,2.5 -6.039,2.918 -10.203,1.043"
         style="fill:none;stroke:#000000;stroke-width:4.16499996;stroke-linecap:round;stroke-linejoin:round;stroke-miterlimit:10;stroke-opacity:1;stroke-dasharray:none"
         id="path3821"
         inkscape:connector-curvature="0" /><path
         d="m 390.887,436.535 c 3.539,1.871 6.871,6.246 9.578,13.117 2.914,7.082 4.375,14.371 4.582,22.075 0.207,13.539 -4.789,27.074 -14.996,40.402"
         style="fill:none;stroke:#000000;stroke-width:4.16499996;stroke-linecap:round;stroke-linejoin:round;stroke-miterlimit:10;stroke-opacity:1;stroke-dasharray:none"
         id="path3823"
         inkscape:connector-curvature="0" /><path
         d="m 404.215,466.523 c -1.043,7.286 -3.332,11.868 -6.875,13.743 -1.457,0.832 -2.496,0.832 -3.332,0 -1.039,-0.832 -1.457,-2.289 -1.457,-4.164 0.207,-4.789 0,-8.539 -1.039,-11.247 -1.25,-3.75 -3.75,-7.289 -7.707,-10.828 -4.789,-3.539 -8.746,-5 -11.66,-4.582 -1.668,0.207 -4.168,1.875 -7.5,4.582 l -3.747,0.414 -3.125,-3.121 c -1.875,-3.957 0,-7.914 5.622,-11.453"
         style="fill:none;stroke:#000000;stroke-width:4.16499996;stroke-linecap:round;stroke-linejoin:round;stroke-miterlimit:10;stroke-opacity:1;stroke-dasharray:none"
         id="path3825"
         inkscape:connector-curvature="0" /><path
         d="m 219.703,512.961 c 4.375,-7.496 7.496,-19.367 9.789,-35.402 0.625,-6.039 0.625,-12.911 -0.207,-21.032 -1.043,-9.582 -2.918,-14.789 -5.418,-15.41 l -11.242,-0.625 c -4.793,0.625 -8.75,2.082 -11.457,4.789 -1.039,2.914 -1.871,12.492 -2.496,28.528 -0.418,11.664 1.871,23.742 6.664,36.445 1.871,4.789 4.164,7.289 6.871,7.914 2.707,0.418 5.207,-1.25 7.496,-5.207 z"
         style="fill:none;stroke:#000000;stroke-width:4.16499996;stroke-linecap:round;stroke-linejoin:round;stroke-miterlimit:10;stroke-opacity:1;stroke-dasharray:none"
         id="path3827"
         inkscape:connector-curvature="0" /><path
         d="m 215.539,517.125 c 3.125,-3.957 4.371,-8.121 3.75,-12.91 l -4.375,-13.953 c -1.875,-5.207 -4.375,-7.703 -7.914,-7.496 -3.539,0.207 -5.621,3.125 -6.664,8.746"
         style="fill:none;stroke:#000000;stroke-width:4.16499996;stroke-linecap:round;stroke-linejoin:round;stroke-miterlimit:10;stroke-opacity:1;stroke-dasharray:none"
         id="path3829"
         inkscape:connector-curvature="0" /><path
         d="m 229.492,475.895 c -2.918,7.496 -4.789,9.996 -5.625,7.289 -0.832,-2.5 -0.414,-7.707 1.25,-15.621 2.293,-10.622 0,-16.243 -7.289,-16.661 -4.371,0 -7.289,1.043 -8.746,3.125 -1.457,1.875 -2.5,5.207 -2.707,9.996 -0.207,4.372 -1.25,6.454 -2.914,6.04 -1.875,-0.625 -2.5,-2.915 -2.293,-7.083 0.211,-8.953 2.707,-16.242 7.5,-21.449"
         style="fill:none;stroke:#000000;stroke-width:4.16499996;stroke-linecap:round;stroke-linejoin:round;stroke-miterlimit:10;stroke-opacity:1;stroke-dasharray:none"
         id="path3831"
         inkscape:connector-curvature="0" /><path
         d="m 247.816,407.172 -5.828,6.246"
         style="fill:none;stroke:#000000;stroke-width:4.16499996;stroke-linecap:round;stroke-linejoin:round;stroke-miterlimit:10;stroke-opacity:1;stroke-dasharray:none"
         id="path3833"
         inkscape:connector-curvature="0" /><path
         d="m 286.762,410.086 c -0.625,-2.5 -1.875,-4.375 -3.75,-5.621"
         style="fill:none;stroke:#000000;stroke-width:4.16499996;stroke-linecap:round;stroke-linejoin:round;stroke-miterlimit:10;stroke-opacity:1;stroke-dasharray:none"
         id="path3835"
         inkscape:connector-curvature="0" /><path
         d="m 191.59,382.391 -9.996,-3.957 c -4.996,-1.875 -7.496,-3.543 -7.496,-5 0,-1.664 1.664,-3.957 4.789,-6.871 l 6.039,-5"
         style="fill:none;stroke:#000000;stroke-width:4.16499996;stroke-linecap:round;stroke-linejoin:round;stroke-miterlimit:10;stroke-opacity:1;stroke-dasharray:none"
         id="path3837"
         inkscape:connector-curvature="0" /><path
         d="m 471.27,401.547 c 5.621,-1.664 12.91,-8.328 21.867,-19.992 7.289,-9.578 13.117,-18.532 17.492,-26.657 3.957,-7.914 6.039,-16.66 5.832,-26.031 -0.211,-11.867 -4.164,-22.074 -11.871,-30.195 -8.121,-8.539 -19.574,-12.078 -34.363,-10.203 -13.95,1.664 -25.614,6.871 -34.778,15.617 -5.203,4.375 -11.867,15.203 -19.781,32.07 -7.289,15.621 -11.871,27.282 -13.539,35.403 l -7.703,5.832 c -3.125,1.457 -4.582,3.539 -4.582,5.832 0,2.707 2.289,6.246 7.082,10.621 l 10.203,9.996 c 0.625,1.039 3.125,6.664 7.289,17.074 3.332,8.539 6.039,13.121 8.328,13.539 2.293,0.207 5.207,-2.086 8.746,-7.082 l 6.875,-10.203 c 6.039,-6.875 10.203,-9.371 12.703,-7.914 l 6.871,4.789 c 2.914,2.082 4.789,2.914 5.832,2.707 2.082,-0.625 4.165,-3.957 6.04,-9.789 l 1.457,-5.414 z"
         style="fill:none;stroke:#000000;stroke-width:4.16499996;stroke-linecap:round;stroke-linejoin:round;stroke-miterlimit:10;stroke-opacity:1;stroke-dasharray:none"
         id="path3839"
         inkscape:connector-curvature="0" /><path
         d="m 471.27,401.547 1.25,-4.164"
         style="fill:none;stroke:#000000;stroke-width:4.16499996;stroke-linecap:round;stroke-linejoin:round;stroke-miterlimit:10;stroke-opacity:1;stroke-dasharray:none"
         id="path3841"
         inkscape:connector-curvature="0" /><path
         d="m 467.938,412.793 c 11.453,11.664 16.242,28.945 14.371,52.062 -1.461,19.161 -7.5,40.817 -17.704,64.973 -10.203,23.742 -29.57,41.86 -58.101,54.149 -23.324,9.996 -48.731,14.992 -76.426,14.992 -31.238,-0.625 -58.726,-9.996 -82.262,-28.114 -10.203,-7.914 -21.656,-19.992 -33.945,-36.234 l -9.785,-12.914 c -1.457,-2.914 -0.836,-5.414 2.289,-7.496"
         style="fill:none;stroke:#000000;stroke-width:4.16499996;stroke-linecap:round;stroke-linejoin:round;stroke-miterlimit:10;stroke-opacity:1;stroke-dasharray:none"
         id="path3843"
         inkscape:connector-curvature="0" /><path
         d="m 387.137,401.34 -2.914,-2.914 c -1.461,-1.043 -5.207,-2.5 -11.039,-4.375 l -39.153,-1.043 c -21.656,0 -36.027,-1.246 -42.898,-3.953 -8.539,-3.125 -15.203,-4.793 -20.199,-4.582 -8.121,0.414 -17.493,4.164 -28.532,11.242 l -11.035,4.375 -16.246,5.207 c -14.16,4.789 -21.449,10.41 -22.074,16.66 -0.207,3.957 0.625,7.289 2.5,10.41 2.707,4.168 4.375,8.539 5.414,13.328"
         style="fill:none;stroke:#000000;stroke-width:4.16499996;stroke-linecap:round;stroke-linejoin:round;stroke-miterlimit:10;stroke-opacity:1;stroke-dasharray:none"
         id="path3845"
         inkscape:connector-curvature="0" /><path
         d="m 398.59,374.477 c -13.535,-8.125 -31.445,-12.704 -53.313,-13.954 -17.285,-1.043 -34.152,0.207 -51.019,3.332 -41.86,7.29 -71.637,22.489 -89.133,45.188"
         style="fill:none;stroke:#000000;stroke-width:4.16499996;stroke-linecap:round;stroke-linejoin:round;stroke-miterlimit:10;stroke-opacity:1;stroke-dasharray:none"
         id="path3847"
         inkscape:connector-curvature="0" /><path
         d="m 276.555,366.77 c 3.332,-10.622 3.332,-26.032 0,-46.438 -3.539,-21.867 -9.16,-33.945 -17.075,-35.82 -16.453,-2.707 -36.027,4.789 -58.726,22.699 -7.707,6.039 -14.996,12.91 -22.074,20.199 l -10.414,12.289 c -1.039,1.246 -4.789,3.332 -11.036,6.039 -5.207,2.289 -7.914,4.578 -8.539,7.078 -0.418,2.082 1.664,5.207 6.039,9.164 4.79,4.375 7.079,8.122 7.079,11.247 0,1.875 -2.496,6.871 -7.496,15.203 -3.122,5.414 -1.875,8.328 3.75,8.535 l 31.445,0.418 26.238,0"
         style="fill:none;stroke:#000000;stroke-width:4.16499996;stroke-linecap:round;stroke-linejoin:round;stroke-miterlimit:10;stroke-opacity:1;stroke-dasharray:none"
         id="path3849"
         inkscape:connector-curvature="0" /><path
         d="m 476.684,424.871 c -1.664,-3.125 -2.289,-8.539 -1.664,-16.66 l 0.625,-6.871 0.207,-1.25"
         style="fill:none;stroke:#000000;stroke-width:4.16499996;stroke-linecap:round;stroke-linejoin:round;stroke-miterlimit:10;stroke-opacity:1;stroke-dasharray:none"
         id="path3851"
         inkscape:connector-curvature="0" /><path
         d="m 481.059,438.406 c 2.914,3.957 4.371,9.582 4.371,16.66 0.211,6.875 -0.832,10.414 -3.121,10.832"
         style="fill:none;stroke:#000000;stroke-width:4.16499996;stroke-linecap:round;stroke-linejoin:round;stroke-miterlimit:10;stroke-opacity:1;stroke-dasharray:none"
         id="path3853"
         inkscape:connector-curvature="0" /><path
         d="m 558.941,144.566 c 18.536,8.539 21.661,24.993 9.582,48.942 -2.5,5.203 -8.121,14.574 -17.078,28.527 -6.871,11.039 -11.035,18.742 -12.285,23.324 -2.082,7.707 -0.832,22.075 3.539,42.692 4.375,20.617 5.414,35.402 2.914,44.566 -2.496,9.578 -9.371,22.492 -20.613,38.528 -11.457,16.242 -17.91,27.281 -19.578,32.902 -1.039,3.75 -1.457,9.996 -1.039,18.535 l 1.039,21.863 c -0.625,17.285 -8.539,26.657 -23.738,27.907"
         style="fill:none;stroke:#000000;stroke-width:4.16499996;stroke-linecap:round;stroke-linejoin:round;stroke-miterlimit:10;stroke-opacity:1;stroke-dasharray:none"
         id="path3855"
         inkscape:connector-curvature="0" /><path
         d="m 543.742,178.094 -16.453,26.031 c -9.371,15.414 -15.828,27.906 -18.949,37.277 -3.125,8.957 -2.707,22.286 0.832,40.196 3.957,19.367 5.621,30.609 5.207,33.316"
         style="fill:none;stroke:#000000;stroke-width:4.16499996;stroke-linecap:round;stroke-linejoin:round;stroke-miterlimit:10;stroke-opacity:1;stroke-dasharray:none"
         id="path3857"
         inkscape:connector-curvature="0" /><path
         d="m 576.02,166.434 c 15.203,14.16 23.531,40.402 24.988,78.511 1.25,30.61 -1.664,61.223 -8.535,92.047 -5.207,23.946 -17.496,47.895 -36.446,71.844 -18.117,23.117 -35.195,37.277 -51.019,42.691"
         style="fill:none;stroke:#000000;stroke-width:4.16499996;stroke-linecap:round;stroke-linejoin:round;stroke-miterlimit:10;stroke-opacity:1;stroke-dasharray:none"
         id="path3859"
         inkscape:connector-curvature="0" /><path
         d="m 564.148,381.973 -20.824,2.5 -22.699,1.664"
         style="fill:none;stroke:#000000;stroke-width:4.16499996;stroke-linecap:round;stroke-linejoin:round;stroke-miterlimit:10;stroke-opacity:1;stroke-dasharray:none"
         id="path3861"
         inkscape:connector-curvature="0" /><path
         d="m 601.219,262.02 c -2.707,-10.204 -6.664,-22.7 -12.289,-37.485 -6.453,-16.867 -11.246,-27.074 -14.367,-30.406"
         style="fill:none;stroke:#000000;stroke-width:4.16499996;stroke-linecap:round;stroke-linejoin:round;stroke-miterlimit:10;stroke-opacity:1;stroke-dasharray:none"
         id="path3863"
         inkscape:connector-curvature="0" /><path
         d="m 468.77,39.6094 c -6.454,-0.625 -10.411,0 -11.661,2.082 -1.043,1.875 -0.418,5.4141 2.082,10.6211 2.707,6.0391 3.957,10.6211 3.75,13.9531 l -3.543,21.2422 c -1.875,12.2852 -2.914,25.1952 -2.914,38.7342 0,17.699 4.371,32.485 13.121,44.356 9.372,13.121 22.489,20.199 39.36,21.449 16.035,1.043 28.738,-4.996 38.109,-18.117 7.496,-10.621 11.867,-23.739 13.328,-39.567 1.039,-10.414 0.625,-23.117 -0.836,-38.1091 l -2.914,-27.9062 1.875,-17.2852 c 0.625,-6.0391 0,-10.6211 -1.875,-13.7422 l -14.371,-0.625 c -7.496,2.4961 -12.492,3.5391 -15.199,3.332 -3.543,-0.4179 -8.125,-2.707 -13.746,-7.082 -5.207,-4.164 -9.164,-6.2461 -11.871,-6.2461 -3.332,0 -6.871,1.8711 -10.828,5.4141 l -8.746,7.4961 c -1.457,0.625 -5.832,0.625 -13.121,0 z"
         style="fill:none;stroke:#000000;stroke-width:4.16499996;stroke-linecap:round;stroke-linejoin:round;stroke-miterlimit:10;stroke-opacity:1;stroke-dasharray:none"
         id="path3865"
         inkscape:connector-curvature="0" /><path
         d="m 456.277,109.164 c -27.074,-3.332 -54.148,3.75 -81.218,21.242 -9.579,6.039 -20.2,14.16 -31.864,24.367 l -26.656,23.739 -8.328,5.625 c -2.293,0.621 -3.125,0.207 -2.918,-1.25 -8.953,7.91 -18.949,23.949 -29.988,48.105 -11.035,23.738 -16.867,41.442 -17.492,53.313"
         style="fill:none;stroke:#000000;stroke-width:4.16499996;stroke-linecap:round;stroke-linejoin:round;stroke-miterlimit:10;stroke-opacity:1;stroke-dasharray:none"
         id="path3867"
         inkscape:connector-curvature="0" /><path
         d="m 306.543,63.3516 c -7.289,-5 -11.035,-8.75 -11.246,-11.0391 -0.414,-3.5391 6.25,-4.7891 19.785,-4.1641 51.856,4.5821 78.926,10.4102 81.219,17.4922 0.625,2.2891 0.414,5.2071 -0.836,8.7461 l -3.539,10.4141 c -2.707,10.2031 -0.414,21.0312 7.082,32.0702"
         style="fill:none;stroke:#000000;stroke-width:4.16499996;stroke-linecap:round;stroke-linejoin:round;stroke-miterlimit:10;stroke-opacity:1;stroke-dasharray:none"
         id="path3869"
         inkscape:connector-curvature="0" /><path
         d="m 303.211,61.4766 c -15.41,-2.293 -21.449,0 -18.324,7.0781 2.289,4.793 6.664,9.7891 13.535,14.7851 -6.457,4.793 -11.453,11.0391 -15.41,18.7462 -4.375,8.121 -6.664,16.66 -6.871,25.613 -0.625,21.867 9.996,40.61 31.859,56.438"
         style="fill:none;stroke:#000000;stroke-width:4.16499996;stroke-linecap:round;stroke-linejoin:round;stroke-miterlimit:10;stroke-opacity:1;stroke-dasharray:none"
         id="path3871"
         inkscape:connector-curvature="0" /><path
         d="m 690.973,110.207 c -13.953,-6.039 -37.485,-8.539 -70.18,-7.289 -26.863,1.039 -46.648,3.125 -59.559,6.664"
         style="fill:none;stroke:#000000;stroke-width:4.16499996;stroke-linecap:round;stroke-linejoin:round;stroke-miterlimit:10;stroke-opacity:1;stroke-dasharray:none"
         id="path3873"
         inkscape:connector-curvature="0" /><path
         d="m 590.598,188.09 c 2.289,0.625 5.832,5.207 10.621,13.328 l 16.242,26.656 c 17.91,26.031 38.941,41.235 62.891,45.817 16.871,3.539 33.113,-1.043 48.941,-13.328 15.199,-11.872 26.445,-27.907 33.734,-48.524 3.539,-9.785 4.582,-20.406 3.332,-31.859 -1.25,-11.246 -4.582,-21.867 -9.789,-32.071 -12.078,-22.91 -28.738,-35.613 -50.187,-38.113 -20.617,-2.496 -34.778,5 -42.067,22.699 -3.121,7.5 -4.371,15.828 -3.746,24.993 0.625,9.164 3.121,17.699 7.496,25.824 4.164,7.703 10.204,12.285 17.911,13.742 7.078,1.457 14.16,0.207 21.031,-3.332 6.875,-3.539 11.664,-8.539 13.953,-14.578 2.707,-6.871 1.875,-13.535 -2.914,-19.992"
         style="fill:none;stroke:#000000;stroke-width:4.16499996;stroke-linecap:round;stroke-linejoin:round;stroke-miterlimit:10;stroke-opacity:1;stroke-dasharray:none"
         id="path3875"
         inkscape:connector-curvature="0" /><path
         d="m 418.582,317.832 c -23.531,-6.871 -51.019,-8.332 -82.883,-4.789 -20.617,2.289 -40.191,6.039 -58.308,11.66"
         style="fill:none;stroke:#000000;stroke-width:4.16499996;stroke-linecap:round;stroke-linejoin:round;stroke-miterlimit:10;stroke-opacity:1;stroke-dasharray:none"
         id="path3877"
         inkscape:connector-curvature="0" /><path
         d="m 405.461,145.609 -13.949,17.075 c -7.707,10.832 -14.789,22.699 -21.453,35.82 -19.157,37.691 -29.778,75.594 -31.86,113.703"
         style="fill:none;stroke:#000000;stroke-width:4.16499996;stroke-linecap:round;stroke-linejoin:round;stroke-miterlimit:10;stroke-opacity:1;stroke-dasharray:none"
         id="path3879"
         inkscape:connector-curvature="0" /><path
         d="m 474.184,186.844 c -4.164,2.289 -11.454,7.91 -21.864,17.281 l -18.953,16.871 c -26.031,-4.168 -54.558,-4.375 -85.59,-0.836 -17.699,1.875 -31.863,4.375 -42.484,7.289 -3.121,-6.871 -6.246,-17.906 -9.16,-33.32"
         style="fill:none;stroke:#000000;stroke-width:4.16499996;stroke-linecap:round;stroke-linejoin:round;stroke-miterlimit:10;stroke-opacity:1;stroke-dasharray:none"
         id="path3881"
         inkscape:connector-curvature="0" /><path
         d="m 302.586,229.949 c -6.453,7.496 -13.535,17.078 -21.238,28.739 -7.289,11.039 -12.914,20.617 -16.453,28.531"
         style="fill:none;stroke:#000000;stroke-width:4.16499996;stroke-linecap:round;stroke-linejoin:round;stroke-miterlimit:10;stroke-opacity:1;stroke-dasharray:none"
         id="path3883"
         inkscape:connector-curvature="0" /><path
         d="m 433.992,227.66 33.738,61.016"
         style="fill:none;stroke:#000000;stroke-width:4.16499996;stroke-linecap:round;stroke-linejoin:round;stroke-miterlimit:10;stroke-opacity:1;stroke-dasharray:none"
         id="path3885"
         inkscape:connector-curvature="0" /><path
         d="m 404.422,143.109 -9.164,-23.742"
         style="fill:none;stroke:#000000;stroke-width:4.16499996;stroke-linecap:round;stroke-linejoin:round;stroke-miterlimit:10;stroke-opacity:1;stroke-dasharray:none"
         id="path3887"
         inkscape:connector-curvature="0" /><path
         d="m 456.484,131.656 -24.367,6.246 -23.738,6.875"
         style="fill:none;stroke:#000000;stroke-width:4.16499996;stroke-linecap:round;stroke-linejoin:round;stroke-miterlimit:10;stroke-opacity:1;stroke-dasharray:none"
         id="path3889"
         inkscape:connector-curvature="0" /></g></g></svg>